<svg width="40" height="40" viewBox="0 0 40 40" fill="none" xmlns="http://www.w3.org/2000/svg">
<g filter="url(#filter0_d)">
<mask id="path-1-inside-1" fill="white">
<path fill-rule="evenodd" clip-rule="evenodd" d="M20 0C11.1634 0 4 7.16344 4 16C4 24.8366 11.1634 32 20 32C28.8366 32 36 24.8366 36 16C36 7.16344 28.8366 0 20 0ZM22.1732 9.92799L23.2588 11.0136L18.2724 16L23.2588 20.9864L22.1732 22.072L16.1012 16L22.1732 9.92799Z"/>
</mask>
<path d="M23.2588 11.0136L25.3801 13.1349L27.5014 11.0136L25.3801 8.89227L23.2588 11.0136ZM22.1732 9.92799L24.2945 7.80667L22.1732 5.68535L20.0519 7.80667L22.1732 9.92799ZM18.2724 16L16.1511 13.8787L14.0298 16L16.1511 18.1213L18.2724 16ZM23.2588 20.9864L25.3801 23.1077L27.5014 20.9864L25.3801 18.8651L23.2588 20.9864ZM22.1732 22.072L20.0519 24.1933L22.1732 26.3146L24.2945 24.1933L22.1732 22.072ZM16.1012 16L13.9799 13.8787L11.8586 16L13.9799 18.1213L16.1012 16ZM7 16C7 8.8203 12.8203 3 20 3V-3C9.50659 -3 1 5.50659 1 16H7ZM20 29C12.8203 29 7 23.1797 7 16H1C1 26.4934 9.50659 35 20 35V29ZM33 16C33 23.1797 27.1797 29 20 29V35C30.4934 35 39 26.4934 39 16H33ZM20 3C27.1797 3 33 8.8203 33 16H39C39 5.50659 30.4934 -3 20 -3V3ZM25.3801 8.89227L24.2945 7.80667L20.0519 12.0493L21.1375 13.1349L25.3801 8.89227ZM20.3937 18.1213L25.3801 13.1349L21.1375 8.89227L16.1511 13.8787L20.3937 18.1213ZM25.3801 18.8651L20.3937 13.8787L16.1511 18.1213L21.1375 23.1077L25.3801 18.8651ZM24.2945 24.1933L25.3801 23.1077L21.1375 18.8651L20.0519 19.9507L24.2945 24.1933ZM13.9799 18.1213L20.0519 24.1933L24.2945 19.9507L18.2225 13.8787L13.9799 18.1213ZM20.0519 7.80667L13.9799 13.8787L18.2225 18.1213L24.2945 12.0493L20.0519 7.80667Z" fill="#59D4CD" mask="url(#path-1-inside-1)"/>
</g>
<defs>
<filter id="filter0_d" x="0" y="0" width="40" height="40" filterUnits="userSpaceOnUse" color-interpolation-filters="sRGB">
<feFlood flood-opacity="0" result="BackgroundImageFix"/>
<feColorMatrix in="SourceAlpha" type="matrix" values="0 0 0 0 0 0 0 0 0 0 0 0 0 0 0 0 0 0 127 0"/>
<feOffset dy="4"/>
<feGaussianBlur stdDeviation="2"/>
<feColorMatrix type="matrix" values="0 0 0 0 0 0 0 0 0 0 0 0 0 0 0 0 0 0 0.25 0"/>
<feBlend mode="normal" in2="BackgroundImageFix" result="effect1_dropShadow"/>
<feBlend mode="normal" in="SourceGraphic" in2="effect1_dropShadow" result="shape"/>
</filter>
</defs>
</svg>
