<svg width="198" height="383" viewBox="0 0 198 383" fill="none" xmlns="http://www.w3.org/2000/svg">
<path d="M2.76472 123.277H0.934204V126.263H2.76472V123.277Z" fill="#367198"/>
<path d="M4.29326 123.277H2.76474V126.263H4.29326V123.277Z" fill="#367198"/>
<path d="M2.34559 140.678H2.76469V126.257H0.915664V139.266C0.914814 139.453 0.951368 139.639 1.02316 139.812C1.09495 139.985 1.20054 140.142 1.33374 140.273C1.46694 140.405 1.62504 140.508 1.7988 140.578C1.97256 140.648 2.15846 140.682 2.34559 140.678Z" fill="#367198"/>
<path d="M3.01744 50.9212H2.70927C2.52392 50.9212 2.34039 50.9577 2.16915 51.0287C1.99791 51.0997 1.84232 51.2037 1.71126 51.3349C1.5802 51.466 1.47622 51.6218 1.40529 51.7932C1.33436 51.9645 1.29785 52.1482 1.29785 52.3337V64.6707C1.29947 65.0448 1.4487 65.4032 1.71304 65.6677C1.97738 65.9323 2.33544 66.0816 2.70927 66.0833H3.07291V50.9273L3.01744 50.9212Z" fill="#367198"/>
<path d="M2.59832 78.6669C2.22342 78.6669 1.86377 78.8155 1.5981 79.0803C1.33243 79.345 1.18236 79.7043 1.18073 80.0795V103.637C1.18236 104.012 1.33243 104.371 1.5981 104.636C1.86377 104.901 2.22342 105.049 2.59832 105.049H3.07289V78.6669H2.59832Z" fill="#367198"/>
<path d="M18.6971 110.219C18.6971 100.602 27.0794 92.805 37.4216 92.805C47.7638 92.805 56.1398 100.602 56.1398 110.219C56.1153 112.788 55.5058 115.318 54.3577 117.616C53.2096 119.914 51.5531 121.92 49.5142 123.481H97.0341V68.7665C97.606 68.2255 98.316 67.8528 99.0859 67.6895C99.8558 67.5263 100.656 67.5788 101.398 67.8413C102.65 68.2397 103.702 69.1027 104.338 70.2531C106.698 74.2811 110.415 76.8781 114.594 76.8781C121.731 76.8781 127.537 69.3093 127.537 59.9641C127.537 50.6189 121.756 43.0564 114.594 43.0564C111.228 43.0564 108.165 44.7342 105.866 47.4915C104.994 48.5463 104.255 49.7044 103.666 50.9397L103.549 51.6737C103.549 51.6737 100.794 54.0301 97.0341 51.8649V25.5256H61.6931C58.4602 25.5174 55.3625 24.2264 53.0794 21.9356C50.7963 19.6449 49.5142 16.5414 49.5142 13.3058V10.7274H29.4276C27.4792 10.7282 25.55 11.1133 23.7504 11.8607C21.9507 12.6081 20.3159 13.703 18.9393 15.0831C17.5627 16.4631 16.4713 18.1011 15.7275 19.9035C14.9838 21.7058 14.6022 23.6372 14.6046 25.5873V123.481H25.292C23.2587 121.917 21.6081 119.909 20.4654 117.611C19.3228 115.313 18.718 112.785 18.6971 110.219V110.219Z" fill="#9BC9E2"/>
<path d="M195.772 86.7785H194.613V123.277H197.183V88.1972C197.183 87.822 197.035 87.462 196.77 87.1962C196.506 86.9303 196.147 86.7801 195.772 86.7785V86.7785Z" fill="#367198"/>
<path d="M178.564 249.2V243.032C179.842 241.271 180.53 239.151 180.53 236.974C180.53 234.798 179.842 232.678 178.564 230.917V249.2Z" fill="#367198"/>
<path d="M176.086 251.581H178.551V249.2C177.805 250.069 176.98 250.866 176.086 251.581V251.581Z" fill="#9BC9E2"/>
<g opacity="0.1">
<path opacity="0.1" d="M103.635 329.693C106.002 333.721 109.712 336.318 113.891 336.318C121.028 336.318 126.834 328.749 126.834 319.404C126.834 310.058 121.01 302.551 113.891 302.551C110.532 302.551 107.469 304.229 105.17 306.987C104.298 308.041 103.559 309.199 102.969 310.435L102.846 311.169C102.846 311.169 100.091 313.525 96.3376 311.36V256.572H42.8886C42.4563 256.005 42.171 255.34 42.058 254.636C41.9451 253.932 42.0081 253.211 42.2414 252.537C42.6406 251.285 43.5026 250.233 44.6513 249.595C48.676 247.226 51.277 243.513 51.277 239.331C51.277 232.188 43.7083 226.377 34.3769 226.377C25.0455 226.377 17.4768 232.169 17.4768 239.331C17.4768 242.693 19.1594 245.764 21.9145 248.065C22.9674 248.934 24.1224 249.672 25.3536 250.261L25.4276 250.385C26.2359 251.167 26.772 252.189 26.9573 253.299C27.1426 254.41 26.9672 255.55 26.4569 256.553H2.35181V358.012C2.35181 364.392 4.88429 370.511 9.39216 375.023C13.9 379.535 20.014 382.069 26.3891 382.069H96.3562V328.231C96.9264 327.689 97.6353 327.316 98.4044 327.152C99.1735 326.989 99.9728 327.042 100.714 327.305C101.956 327.699 103.002 328.553 103.635 329.693V329.693Z" fill="#2E5F7A"/>
<path opacity="0.1" d="M13.6801 254.437H22.0501C20.0151 252.873 18.3631 250.865 17.2194 248.566C16.0756 246.267 15.4702 243.737 15.449 241.169C15.449 231.552 23.8313 223.762 34.1673 223.762C44.5034 223.762 52.8918 231.552 52.8918 241.169C52.8706 243.737 52.2652 246.267 51.1214 248.566C49.9777 250.865 48.3257 252.873 46.2907 254.437H96.4609V200.383C97.0344 199.847 97.7433 199.477 98.5112 199.314C99.279 199.151 100.077 199.201 100.818 199.458C102.073 199.854 103.128 200.718 103.765 201.87C106.125 205.898 109.836 208.495 114.02 208.495C121.158 208.495 126.964 200.926 126.964 191.587C126.964 182.248 121.182 174.673 114.02 174.673C110.655 174.673 107.592 176.357 105.293 179.108C104.424 180.165 103.685 181.323 103.093 182.556L102.976 182.63C102.149 183.493 101.054 184.05 99.8706 184.208C98.6867 184.366 97.4843 184.116 96.4609 183.5V128.724H45.0026C44.5703 128.157 44.285 127.492 44.1721 126.788C44.0591 126.084 44.1222 125.363 44.3554 124.69C44.7519 123.436 45.6146 122.383 46.7653 121.747C50.79 119.385 53.3848 115.665 53.3848 111.483C53.3848 104.34 45.8223 98.5294 36.4909 98.5294C27.1595 98.5294 19.5909 104.322 19.5909 111.483C19.5909 114.851 21.2735 117.917 24.0224 120.218C25.0783 121.088 26.2351 121.827 27.4677 122.42L27.5417 122.537C28.3499 123.32 28.8861 124.341 29.0714 125.452C29.2566 126.562 29.0812 127.702 28.5709 128.706H13.6801V125.93H24.6757C22.6448 124.367 20.9957 122.363 19.8531 120.069C18.7106 117.774 18.1045 115.25 18.0808 112.686C18.0808 103.069 26.4631 95.2724 36.8053 95.2724C47.1475 95.2724 55.5235 103.069 55.5235 112.686C55.499 115.255 54.8895 117.785 53.7414 120.083C52.5933 122.381 50.9368 124.387 48.8979 125.948H96.4178V71.2339C96.9897 70.6928 97.6997 70.3202 98.4696 70.1569C99.2395 69.9937 100.039 70.0462 100.781 70.3086C102.033 70.7071 103.085 71.5701 103.721 72.7205C106.082 76.7485 109.799 79.3454 113.977 79.3454C121.115 79.3454 126.921 71.7767 126.921 62.4315C126.921 53.0863 121.139 45.5237 113.977 45.5237C110.612 45.5237 107.549 47.2016 105.25 49.9589C104.378 51.0137 103.639 52.1718 103.05 53.407L102.932 54.1411C102.932 54.1411 100.177 56.4974 96.4178 54.3323V3.30059H26.4815C20.1065 3.30059 13.9925 5.83516 9.4846 10.3467C4.97673 14.8583 2.44424 20.9773 2.44424 27.3576V53.4009H2.0806C1.70627 53.4009 1.34726 53.5497 1.08257 53.8146C0.817874 54.0795 0.669177 54.4388 0.669177 54.8135V67.1504C0.670799 67.5245 0.82003 67.8829 1.08437 68.1474C1.34871 68.412 1.70677 68.5613 2.0806 68.563H2.44424V81.159H1.96965C1.59475 81.159 1.23512 81.3076 0.969448 81.5723C0.703776 81.8371 0.553701 82.1963 0.552071 82.5715V106.129C0.553701 106.504 0.703776 106.863 0.969448 107.128C1.23512 107.393 1.59475 107.541 1.96965 107.541H2.44424V116.794H2.05594C1.68161 116.794 1.32262 116.943 1.05793 117.208C0.793234 117.473 0.644518 117.832 0.644518 118.207V125.794H0.336348V141.783C0.335532 141.968 0.371489 142.152 0.442131 142.324C0.512773 142.496 0.616706 142.652 0.747932 142.783C0.879157 142.915 1.03508 143.019 1.20669 143.089C1.3783 143.16 1.5622 143.196 1.74777 143.195H2.16688V254.437H13.6801Z" fill="#2E5F7A"/>
<path opacity="0.1" d="M196.567 90.6646C196.567 90.2894 196.419 89.9294 196.154 89.6635C195.889 89.3977 195.53 89.2475 195.156 89.2458H194.305V87.6976H193.843V26.1671C193.844 23.1292 193.246 20.1208 192.085 17.314C190.924 14.5072 189.221 11.9568 187.075 9.80867C184.929 7.66053 182.38 5.95669 179.576 4.79449C176.771 3.6323 173.765 3.03454 170.73 3.03535H101.392V49.9157C102.975 47.812 105.023 46.1026 107.375 44.9203C109.727 43.7381 112.319 43.115 114.951 43.0995C124.634 43.0995 132.486 51.4948 132.486 61.8455C132.486 72.1962 124.634 80.5915 114.951 80.5915C112.319 80.577 109.726 79.9543 107.374 78.772C105.022 77.5897 102.975 75.8797 101.392 73.7753V125.794H157.479C155.446 124.225 153.797 122.214 152.656 119.913C151.514 117.612 150.911 115.082 150.89 112.513C150.89 102.884 159.254 95.0812 169.577 95.0812C174.166 95.0556 178.615 96.66 182.132 99.6089C184.063 101.153 185.622 103.112 186.693 105.341C187.765 107.57 188.321 110.012 188.321 112.486C188.321 114.959 187.765 117.401 186.693 119.63C185.622 121.859 184.063 123.818 182.132 125.362V125.776H194.305V125.732H196.567V90.6646Z" fill="#2E5F7A"/>
<path opacity="0.1" d="M177.947 251.668V245.499C178.201 245.128 178.434 244.743 178.644 244.346C179.469 242.843 179.906 241.157 179.913 239.442C179.912 238.299 179.716 237.164 179.334 236.086C178.998 235.126 178.531 234.217 177.947 233.384V233.384C175.106 229.295 169.491 226.507 163.02 226.507C153.682 226.507 146.12 232.299 146.12 239.46C146.12 242.828 147.802 245.894 150.551 248.195C151.607 249.065 152.764 249.804 153.996 250.397L154.07 250.514C154.878 251.298 155.413 252.319 155.599 253.429C155.784 254.539 155.609 255.679 155.1 256.683H100.726V307.264C102.287 305.173 104.311 303.473 106.639 302.295C108.967 301.118 111.536 300.496 114.144 300.479C123.752 300.479 131.537 308.868 131.537 319.212C131.537 329.557 123.752 337.952 114.144 337.952C111.536 337.935 108.967 337.313 106.639 336.136C104.311 334.958 102.287 333.258 100.726 331.167V371.996H163.118C167.045 371.996 170.811 370.437 173.591 367.662C176.371 364.887 177.938 361.121 177.947 357.192V256.701V357.124C177.947 361.06 176.385 364.835 173.604 367.618C170.823 370.402 167.051 371.965 163.118 371.965H100.726V381.835H165.442C171.817 381.835 177.931 379.3 182.439 374.789C186.947 370.277 189.479 364.158 189.479 357.778V256.701V254.049H177.947V251.668Z" fill="#2E5F7A"/>
</g>
<path d="M14.2965 123.277H4.29327V126.263H14.2965V123.277Z" fill="#367198"/>
<path d="M14.2964 126.257H4.29324V139.266C4.29324 139.452 4.25653 139.636 4.18522 139.808C4.1139 139.98 4.00939 140.136 3.87767 140.267C3.74595 140.398 3.58962 140.502 3.41767 140.573C3.24572 140.643 3.06151 140.679 2.87565 140.678H2.76471V251.97H14.2964V126.257Z" fill="#367198"/>
<path d="M2.76471 140.678H2.87565C3.06151 140.679 3.24571 140.643 3.41767 140.573C3.58962 140.502 3.74595 140.398 3.87766 140.267C4.00938 140.136 4.11389 139.98 4.18521 139.808C4.25652 139.636 4.29323 139.452 4.29323 139.266V126.257H2.76471V140.678Z" fill="#367198"/>
<path d="M4.60141 115.486C4.60141 115.3 4.5647 115.116 4.49339 114.944C4.42207 114.773 4.31755 114.617 4.18584 114.485C4.05412 114.354 3.89779 114.25 3.72584 114.18C3.55389 114.109 3.36968 114.073 3.18381 114.074H3.07288V123.277H4.60141V115.486Z" fill="#367198"/>
<path d="M3.0729 114.277H2.67228C2.29795 114.277 1.93896 114.426 1.67427 114.691C1.40958 114.956 1.26086 115.315 1.26086 115.69V123.481H3.10988L3.0729 114.277Z" fill="#367198"/>
<path d="M4.42883 64.6645V52.3276C4.42906 51.963 4.28778 51.6125 4.03482 51.3501C3.78185 51.0877 3.43696 50.9339 3.07288 50.9212V66.0647C3.43539 66.0505 3.7785 65.8971 4.03098 65.6363C4.28346 65.3756 4.42594 65.0276 4.42883 64.6645Z" fill="#367198"/>
<path d="M4.71234 103.637V80.0795C4.71234 79.894 4.67583 79.7103 4.6049 79.5389C4.53397 79.3675 4.43002 79.2118 4.29895 79.0806C4.16789 78.9495 4.01228 78.8454 3.84104 78.7744C3.6698 78.7034 3.48627 78.6669 3.30092 78.6669H3.07288V105.049H3.2886C3.47498 105.051 3.65984 105.016 3.8325 104.945C4.00517 104.875 4.16224 104.771 4.29461 104.64C4.42698 104.509 4.53204 104.352 4.60374 104.18C4.67544 104.008 4.71235 103.823 4.71234 103.637V103.637Z" fill="#367198"/>
<path d="M190.761 86.7044V123.32H194.921V85.2302H192.672C191.618 85.2302 190.761 85.8902 190.761 86.7044Z" fill="#367198"/>
<path d="M106.939 0.567963H102.008V11.6712H106.939V0.567963Z" fill="#367198"/>
<path d="M106.939 17.2228H102.008V25.2418H106.939V17.2228Z" fill="#367198"/>
<path d="M190.095 251.581H178.564V254.234H190.095V251.581Z" fill="#367198"/>
<path d="M173.91 247.251C172.761 247.888 171.899 248.941 171.5 250.193C171.266 250.868 171.203 251.59 171.315 252.295C171.428 253 171.714 253.666 172.148 254.234H178.564V251.581H176.098C176.992 250.866 177.817 250.069 178.564 249.2V243.032C177.337 244.76 175.749 246.199 173.91 247.251V247.251Z" fill="#9BC9E2"/>
<path d="M180.53 236.987C180.515 234.813 179.828 232.697 178.564 230.929V243.038C179.825 241.271 180.512 239.158 180.53 236.987V236.987Z" fill="#367198"/>
<path d="M29.329 369.701C25.3961 369.701 21.6242 368.138 18.8432 365.354C16.0622 362.571 14.4999 358.796 14.4999 354.86V254.104H2.96814V355.545C2.96814 361.925 5.50063 368.044 10.0085 372.556C14.5164 377.067 20.6304 379.602 27.0054 379.602H96.9725V369.732L29.329 369.701Z" fill="#367198"/>
<path d="M101.287 324.838C102.541 325.233 103.594 326.097 104.227 327.25C106.594 331.278 110.304 333.875 114.483 333.875C121.62 333.875 127.426 326.306 127.426 316.961C127.426 307.616 121.626 300.084 114.507 300.084C111.148 300.084 108.085 301.762 105.786 304.519C104.914 305.574 104.175 306.732 103.586 307.967L103.463 308.701C103.463 308.701 100.707 311.058 96.9539 308.893V254.104H43.5049C43.0726 253.538 42.7873 252.873 42.6743 252.169C42.5614 251.465 42.6244 250.744 42.8577 250.07C43.2569 248.818 44.1189 247.765 45.2676 247.128C49.2923 244.759 51.8932 241.046 51.8932 236.863C51.8932 229.72 44.3246 223.91 34.9932 223.91C25.6618 223.91 18.0931 229.702 18.0931 236.863C18.0931 240.225 19.7757 243.297 22.5308 245.598C23.5838 246.467 24.7387 247.205 25.9699 247.794L26.0439 247.917C26.8522 248.7 27.3883 249.722 27.5736 250.832C27.7589 251.942 27.5835 253.083 27.0732 254.086H14.4998V354.86C14.4998 358.796 16.0622 362.571 18.8432 365.354C21.6242 368.138 25.3961 369.701 29.329 369.701H96.9724V325.763C97.5386 325.23 98.24 324.861 99.0006 324.698C99.7611 324.535 100.552 324.583 101.287 324.838Z" fill="#9BC9E2"/>
<path d="M16.0654 238.677C16.0654 229.06 24.4476 221.269 34.7836 221.269C45.1197 221.269 53.5081 229.06 53.5081 238.677C53.4907 241.249 52.887 243.784 51.7431 246.087C50.5992 248.391 48.9452 250.403 46.9071 251.97H97.0772V197.916C97.6507 197.379 98.3596 197.01 99.1275 196.847C99.8953 196.684 100.693 196.733 101.435 196.99C102.689 197.387 103.744 198.25 104.381 199.402C106.741 203.43 110.452 206.027 114.637 206.027C121.774 206.027 127.58 198.458 127.58 189.119C127.58 179.78 121.799 172.206 114.637 172.206C111.272 172.206 108.208 173.89 105.909 176.641C105.04 177.697 104.301 178.855 103.709 180.089L103.592 180.163C102.766 181.026 101.671 181.582 100.487 181.74C99.303 181.898 98.1006 181.649 97.0772 181.033V126.257H45.6189C45.1866 125.69 44.9013 125.025 44.7884 124.321C44.6755 123.617 44.7385 122.896 44.9718 122.222C45.3682 120.969 46.231 119.915 47.3817 119.28C51.4064 116.918 54.0012 113.198 54.0012 109.016C54.0012 101.873 46.4386 96.062 37.1072 96.062C27.7758 96.062 20.2072 101.854 20.2072 109.016C20.2072 112.384 21.8898 115.449 24.6387 117.75C25.6946 118.62 26.8514 119.36 28.084 119.952L28.158 120.07C28.9663 120.852 29.5024 121.874 29.6877 122.984C29.8729 124.094 29.6975 125.235 29.1873 126.238H14.2964V251.97H22.6664C20.6282 250.403 18.9742 248.391 17.8303 246.087C16.6864 243.784 16.0828 241.249 16.0654 238.677V238.677Z" fill="#9BC9E2"/>
<path d="M3.0729 24.8841V50.9273C3.43698 50.9401 3.78187 51.0939 4.03484 51.3563C4.28781 51.6187 4.42908 51.9691 4.42886 52.3337V64.6707C4.42755 65.0348 4.28578 65.3844 4.03313 65.6464C3.78048 65.9085 3.43647 66.0628 3.0729 66.0771V78.6731H3.28862C3.47397 78.6731 3.65751 78.7096 3.82875 78.7806C3.99999 78.8516 4.15558 78.9556 4.28664 79.0868C4.4177 79.218 4.52168 79.3737 4.59261 79.5451C4.66354 79.7165 4.70005 79.9002 4.70005 80.0857V103.643C4.70005 104.018 4.55133 104.377 4.28664 104.642C4.02195 104.907 3.66295 105.056 3.28862 105.056H3.06058V114.308H3.17151C3.54642 114.308 3.90606 114.457 4.17173 114.722C4.43741 114.986 4.58746 115.346 4.58909 115.721V123.481H14.5923V25.5873C14.5923 21.6522 16.1538 17.8781 18.9335 15.095C21.7132 12.3119 25.4835 10.7476 29.4153 10.7459H49.5142V13.3243C49.5142 16.5652 50.8006 19.6734 53.0904 21.965C55.3801 24.2567 58.4857 25.5441 61.7239 25.5441H97.0834V17.4757H80.8058C80.1764 17.4725 79.5734 17.2217 79.1271 16.7773C78.6808 16.333 78.4271 15.7308 78.4206 15.1009V14.5827C78.4222 13.9501 78.6741 13.3438 79.121 12.8965C79.568 12.4492 80.1737 12.1971 80.8058 12.1955H97.0526V0.833199H27.0979C20.726 0.836469 14.6161 3.37164 10.1111 7.88152C5.60606 12.3914 3.07453 18.5069 3.0729 24.8841V24.8841Z" fill="#367198"/>
<path d="M80.8058 12.177C80.1737 12.1786 79.568 12.4307 79.121 12.878C78.674 13.3253 78.4222 13.9316 78.4206 14.5642V15.1009C78.4222 15.7341 78.6738 16.341 79.1206 16.7893C79.5674 17.2376 80.1732 17.491 80.8058 17.4942H97.0526V12.1955L80.8058 12.177Z" fill="#EBEBEB"/>
<path d="M106.939 11.6712H102.008V17.2228H106.939V11.6712Z" fill="#EBEBEB"/>
<path d="M106.933 11.6712C108.245 11.9673 109.398 14.3607 109.398 14.3607V14.8788C109.398 14.8788 108.239 17.266 106.933 17.2228V25.2418H134.785C138.024 25.2402 141.129 23.9514 143.419 21.6588C145.709 19.3661 146.995 16.2574 146.995 13.0159V10.4375H167.95C171.876 10.4457 175.639 12.0123 178.412 14.7935C181.185 17.5748 182.743 21.3435 182.742 25.2727V97.1415C184.673 98.6855 186.232 100.645 187.304 102.874C188.375 105.103 188.931 107.545 188.931 110.018C188.931 112.492 188.375 114.933 187.304 117.163C186.232 119.392 184.673 121.351 182.742 122.895V123.308H191.371V87.1054C191.371 87.0814 191.376 87.0576 191.385 87.0355C191.395 87.0134 191.409 86.9934 191.426 86.9767C191.443 86.96 191.463 86.9469 191.486 86.9383C191.508 86.9297 191.532 86.9257 191.556 86.9265H194.453V23.6997C194.454 20.6618 193.857 17.6535 192.695 14.8466C191.534 12.0398 189.832 9.48943 187.685 7.34129C185.539 5.19314 182.991 3.4893 180.186 2.32711C177.382 1.16492 174.376 0.567153 171.34 0.567963H106.322V11.6712H106.933ZM116.264 11.6157C116.858 11.6157 117.438 11.7919 117.932 12.122C118.425 12.452 118.81 12.9212 119.037 13.4701C119.264 14.0191 119.324 14.6231 119.208 15.2058C119.092 15.7885 118.806 16.3238 118.386 16.7439C117.967 17.164 117.432 17.4501 116.85 17.5661C116.267 17.682 115.664 17.6225 115.115 17.3951C114.567 17.1677 114.098 16.7827 113.768 16.2887C113.438 15.7947 113.262 15.2139 113.262 14.6197C113.262 13.823 113.579 13.0589 114.142 12.4955C114.704 11.9322 115.468 11.6157 116.264 11.6157Z" fill="#367198"/>
<path d="M115.537 40.626C125.219 40.626 133.072 49.0213 133.072 59.372C133.072 69.7226 125.219 78.1179 115.537 78.1179C112.905 78.1034 110.312 77.4807 107.96 76.2984C105.608 75.1161 103.56 73.4061 101.977 71.3018V123.32H158.064C156.032 121.751 154.383 119.74 153.241 117.44C152.1 115.139 151.496 112.608 151.476 110.04C151.476 100.411 159.839 92.6076 170.163 92.6076C174.763 92.5765 179.224 94.1835 182.749 97.1415V25.2727C182.749 21.3435 181.191 17.5748 178.418 14.7935C175.645 12.0123 171.882 10.4457 167.956 10.4375H147.001V13.0159C147.001 16.2574 145.715 19.3661 143.425 21.6588C141.136 23.9514 138.03 25.2402 134.791 25.2418H102.008V47.4483C103.588 45.3476 105.63 43.6395 107.976 42.4563C110.323 41.2732 112.91 40.6469 115.537 40.626V40.626Z" fill="#9BC9E2"/>
<path d="M106.933 17.2228C107.566 17.2236 108.175 16.9807 108.634 16.5443C109.093 16.1079 109.366 15.5116 109.398 14.8788V14.3607C109.326 13.7081 109.049 13.0955 108.605 12.6118C108.162 12.1281 107.576 11.7986 106.933 11.6712H106.316V17.2228H106.933Z" fill="#EBEBEB"/>
<path d="M116.745 17.5716C118.381 17.3058 119.493 15.7627 119.227 14.1251C118.961 12.4874 117.419 11.3753 115.783 11.6412C114.147 11.907 113.036 13.4501 113.301 15.0877C113.567 16.7254 115.109 17.8375 116.745 17.5716Z" fill="#EBEBEB"/>
<path d="M190.096 254.234V355.341C190.096 361.721 187.563 367.84 183.055 372.352C178.547 376.864 172.433 379.398 166.058 379.398H101.342V369.529H163.735C167.668 369.529 171.439 367.965 174.22 365.182C177.001 362.398 178.564 358.623 178.564 354.687V254.234H190.096Z" fill="#367198"/>
<path d="M171.5 250.193C171.898 248.94 172.761 247.888 173.91 247.251C175.748 246.201 177.336 244.763 178.564 243.038V230.929C175.722 226.84 170.107 224.051 163.636 224.051C154.298 224.051 146.736 229.844 146.736 237.005C146.736 240.373 148.418 243.439 151.167 245.74C152.223 246.61 153.38 247.349 154.613 247.942L154.687 248.059C155.494 248.842 156.03 249.864 156.215 250.974C156.4 252.084 156.225 253.224 155.716 254.228H101.342V304.809C102.904 302.718 104.928 301.018 107.256 299.84C109.583 298.663 112.152 298.041 114.76 298.024C124.369 298.024 132.153 306.413 132.153 316.757C132.153 327.102 124.369 335.497 114.76 335.497C112.152 335.479 109.583 334.858 107.256 333.681C104.928 332.503 102.904 330.803 101.342 328.712V369.541H163.735C167.661 369.541 171.427 367.982 174.207 365.207C176.987 362.432 178.554 358.666 178.564 354.737V254.234H172.166C171.73 253.668 171.44 253.003 171.324 252.298C171.208 251.592 171.269 250.869 171.5 250.193V250.193Z" fill="#9BC9E2"/>
</svg>
