<svg width="557" height="491" viewBox="0 0 557 491" fill="none" xmlns="http://www.w3.org/2000/svg">
<g clip-path="url(#clip0)">
<path opacity="0.1" d="M172.328 19.1979C191.213 2.351 220.858 -1.07954 247.819 0.263888C332.56 4.46211 409.051 45.4308 475.219 91.7491C499.184 108.542 522.754 126.588 538.301 149.685C569.953 196.693 560.565 261.837 516.553 300.539C501.574 313.733 483.427 323.815 464.788 332.769C431.656 348.692 395.888 361.473 358.298 365.107C331.481 367.704 304.329 365.593 277.667 361.977C203.183 351.865 130.071 329.5 68.8042 291.243C41.9272 274.45 16.59 253.603 5.51202 226.47C-5.56591 199.338 1.5278 164.924 28.968 148.857C40.3515 142.212 53.8918 139.213 67.1806 136.394C86.7362 132.244 106.609 128.154 124.26 119.721C142.497 111.001 164.066 94.1541 160.471 74.8783C156.577 54.181 153.467 36.0207 172.328 19.1979Z" fill="black"/>
<path opacity="0.1" d="M451.517 464.665C490.853 464.665 522.742 459.174 522.742 452.4C522.742 445.627 490.853 440.136 451.517 440.136C412.181 440.136 380.292 445.627 380.292 452.4C380.292 459.174 412.181 464.665 451.517 464.665Z" fill="#9BC9E2"/>
<path opacity="0.1" d="M235.866 447.872C294.103 447.872 341.313 444.529 341.313 440.405C341.313 436.282 294.103 432.939 235.866 432.939C177.629 432.939 130.419 436.282 130.419 440.405C130.419 444.529 177.629 447.872 235.866 447.872Z" fill="#9BC9E2"/>
<path d="M423.598 161.416C426.941 159.91 429.415 157.373 430.26 154.123C430.362 153.728 430.438 153.328 430.488 152.923C430.637 152.549 430.765 152.166 430.871 151.778C431.716 148.515 430.787 145.139 428.582 142.254L424.203 159.047L423.598 161.416Z" fill="url(#paint0_linear)"/>
<path d="M524.695 155.112C524.012 151.1 511.358 142.41 511.358 142.41C511.358 142.41 505.768 139.411 502.809 135.944C500.915 133.737 500.322 133.761 500.142 134.061C500.02 133.983 499.88 133.936 499.735 133.923C499.615 133.839 499.501 133.761 499.394 133.671C499.411 133.502 499.375 133.331 499.29 133.184C499.205 133.036 499.075 132.919 498.92 132.85C498.776 132.766 498.633 132.658 498.489 132.556C497.53 130.943 497.189 128.658 497.075 126.666C496.931 124.153 494.079 124.783 493.103 125.065C492.432 123.806 491.779 122.498 491.162 121.191C491.434 120.766 491.661 120.314 491.839 119.841C493.6 116.009 493.217 111.613 493.983 107.558C494.535 104.626 495.685 101.561 495.457 98.7062C495.457 98.6402 495.457 98.5682 495.457 98.4963C495.457 98.4963 495.457 98.5263 495.457 98.5383C495.395 97.8231 495.232 97.1204 494.972 96.4511C494.463 95.1677 493.576 94.0522 493.175 92.7267C492.534 90.7895 492.941 88.6544 492.408 86.6933C491.743 84.2103 489.646 82.2911 487.273 81.1936C484.901 80.0961 482.258 79.7182 479.658 79.3944C473.158 78.5787 466.25 78.0929 460.318 80.8278C459.774 81.1503 459.153 81.3183 458.521 81.3136C457.936 81.1518 457.381 80.8945 456.879 80.5519C455.286 79.7602 453.284 80.264 451.859 81.3196C450.433 82.3751 449.462 83.8985 448.521 85.3738C447.581 86.8492 446.55 88.3726 445.076 89.3382C443.345 90.4957 441.056 90.8855 439.684 92.4448C439.073 93.1841 438.686 94.0832 438.57 95.0357C438.57 95.0357 438.57 95.0058 438.57 94.9938C438.564 95.1076 438.564 95.2217 438.57 95.3356C438.57 95.4256 438.57 95.5215 438.57 95.6115C438.57 95.7015 438.57 95.7614 438.57 95.8334C438.57 96.0913 438.57 96.3432 438.57 96.5951C438.762 98.0602 439.15 99.4926 439.726 100.853C440.003 101.869 440.545 102.792 441.296 103.528C443.381 105.225 446.688 103.624 449.204 104.572C449.426 104.65 449.636 104.752 449.845 104.848C449.845 104.944 449.78 105.04 449.75 105.141C449.211 106.974 448.938 108.875 448.941 110.785C448.941 122.048 458.281 131.176 469.802 131.176C470.234 131.176 470.659 131.176 471.085 131.128C471.145 131.35 471.21 131.578 471.264 131.794C471.905 134.283 472.108 136.864 471.863 139.423L471.738 138.307C471.458 138.173 471.167 138.063 470.869 137.978C470.035 137.7 469.16 137.566 468.281 137.582C465.447 137.546 461.181 138.685 456.628 144.215C456.628 144.215 450.816 147.448 449.109 148.227C448.969 148.312 448.858 148.438 448.791 148.587C448.791 148.587 441.02 160.336 440.217 164.804C439.415 169.272 438.42 174.4 438.42 174.4C438.42 174.4 436.479 180.194 435.227 182.761C433.974 185.328 432.83 187.774 432.722 188.89C432.614 190.006 433.178 192.452 430.781 194.012C428.385 195.571 427.785 199.805 427.785 199.805C427.785 199.805 426.587 200.933 424.892 202.36H424.832L431.093 178.328L432.213 178.61C432.481 178.677 432.763 178.665 433.024 178.576C433.285 178.486 433.516 178.323 433.687 178.107C433.803 177.96 433.886 177.79 433.933 177.609L435.197 172.739L435.706 170.802L435.808 170.406L436.545 167.581L434.052 166.981L431.135 166.256L422.891 164.174L423.61 161.416L424.209 159.077L427.977 144.599L428.576 142.266C426.18 139.159 422.363 136.634 417.672 135.465C408.625 133.216 399.866 136.874 398.105 143.633C398 144.027 397.922 144.428 397.871 144.833C397.719 145.203 397.593 145.584 397.493 145.972C397.188 147.146 397.107 148.367 397.254 149.571C397.278 149.767 397.308 149.966 397.344 150.17C397.703 152.038 398.488 153.797 399.638 155.31C400.448 156.392 401.387 157.369 402.436 158.219L402.478 158.351C402.923 159.078 403.192 159.9 403.263 160.75C403.263 160.87 403.263 160.996 403.263 161.122C403.062 161.484 402.821 161.822 402.544 162.129L347.268 148.377L346.669 150.71L334.219 198.6C335.842 197.351 337.666 196.388 339.611 195.751C340.376 195.498 341.156 195.297 341.948 195.151L342.23 195.103C344.458 194.741 346.737 194.835 348.928 195.379C355.914 197.119 360.743 203.074 361.641 210.079C361.758 210.964 361.808 211.856 361.791 212.748C361.774 213.886 361.654 215.02 361.432 216.136C358.436 225.241 349.233 230.74 340.294 228.515C337.789 227.883 335.464 226.679 333.5 224.999C331.536 223.319 329.986 221.208 328.971 218.829L328.372 221.168L315.526 270.318L364.481 282.504L365.009 280.147H365.086C363.636 278.35 362.585 276.264 362.003 274.028C361.42 271.793 361.319 269.458 361.707 267.181C361.707 267.103 361.755 267.031 361.785 266.953C361.845 266.779 361.911 266.611 361.977 266.443C362.312 265.623 362.713 264.83 363.175 264.074C363.415 263.684 363.666 263.306 363.936 262.941C364.104 262.713 364.278 262.491 364.457 262.275C365.319 261.23 366.303 260.292 367.387 259.48L367.735 259.228C368.13 258.946 368.537 258.676 368.933 258.425C369.178 258.281 369.43 258.137 369.682 258.005C372.581 256.471 375.821 255.698 379.1 255.756C380.676 255.777 382.243 255.978 383.773 256.355C388.497 257.491 392.621 260.362 395.331 264.398C395.689 264.939 396.017 265.5 396.313 266.077C397.195 267.791 397.769 269.646 398.009 271.559C398.196 273.086 398.156 274.632 397.889 276.147C396.724 279.501 394.499 282.384 391.55 284.358L390.951 286.613H391.017L390.927 286.679L390.328 288.928L401.508 291.71L417.343 231.106C421.614 230.608 423.801 228.707 423.801 228.431C423.801 228.155 428.936 225.307 431.782 224.527C433.196 224.143 434.831 223.867 436.131 223.591C434.598 231.214 433.136 238.585 433.268 239.017C433.309 239.185 433.585 238.921 434.004 238.345C433.963 238.566 433.945 238.792 433.951 239.017C433.951 239.131 434.112 239.047 434.322 238.813L434.292 238.957C434.292 238.957 425.401 256.175 424.706 258.149C424.011 260.122 424.874 265.172 427.612 266.845C428.142 267.181 428.616 267.6 429.014 268.086L428.69 268.728C427.672 270.797 426.767 273.1 426.929 274.534C427.143 276.348 426.719 278.18 425.73 279.716C425.73 279.716 418.032 303.531 418.205 310.387C418.379 317.242 415.467 332.283 415.467 332.283C415.467 332.283 412.304 341.975 414.185 344.734C416.066 347.493 418.205 359.53 418.205 359.53C418.205 359.53 419.661 362.289 419.571 364.628C419.482 366.967 420.943 371.225 420.943 371.225L425.736 388.521C425.736 388.521 425.221 393.122 427.019 396.378C428.816 399.635 428.642 398.633 427.785 404.319C426.929 410.004 428.816 415.264 431.89 416.913C433.088 417.561 433.148 418.551 432.776 419.516C431.991 419.21 431.338 420.836 430.949 422.149L430.553 422.527L430.817 422.593C430.649 423.193 430.553 423.697 430.553 423.697C430.553 423.697 422.519 430.384 422.004 432.807C421.489 435.23 415.845 436.483 415.845 436.483C415.845 436.483 407.295 438.822 405.06 439.992C404.421 440.283 403.867 440.735 403.454 441.303C403.04 441.872 402.78 442.538 402.7 443.236C402.6 444.338 402.705 445.448 403.011 446.511C403.862 449.935 415.833 450.271 421.584 449.354C427.336 448.436 439.193 445.089 439.193 445.089C439.193 445.089 451.679 443.89 455.369 442.415C459.06 440.939 456.136 437.065 456.136 437.065C456.136 437.065 456.136 436.939 456.136 436.705C456.226 435.308 456.484 430.24 455.597 428.908C454.932 427.877 454.95 425.31 455.046 423.679C457.544 419.18 452.182 405.686 452.182 405.686C452.182 405.686 453.207 392.492 452.524 390.561C451.841 388.629 448.929 372.256 448.929 372.256C448.929 372.256 447.131 364.819 447.82 363.566C448.509 362.313 447.389 358.714 447.389 358.714C447.389 358.714 444.459 354.714 444.723 353.454C444.986 352.195 443.866 349.946 443.866 349.946C443.866 349.946 452.589 336.907 451.817 334.484C451.044 332.061 452.164 328.133 452.164 328.133C452.164 328.133 453.26 326.286 454.561 324.073C456.178 321.362 458.155 318.117 458.802 317.104C459.641 315.814 461.66 310.327 462.787 307.166C463.266 305.822 463.59 304.899 463.59 304.899C463.59 304.899 464.956 329.488 466.154 331.977C467.352 334.466 469.149 354.294 469.149 354.294C469.814 356.054 470.106 357.933 470.006 359.812C469.838 362.9 472.744 376.359 472.744 376.359C472.744 376.359 474.026 385.883 473.17 388.389C472.313 390.896 473.002 409.381 473.002 409.381C473.002 409.381 468.299 412.979 467.1 415.732C465.902 418.485 467.268 426.012 467.268 426.012L467.819 426.269C467.379 427.315 467.051 428.405 466.843 429.52C466.675 431.109 464.105 438.3 464.362 439.302C464.62 440.304 463.254 443.398 463.08 444.982C462.907 446.565 460.774 448.91 460.6 449.75C460.329 450.501 460.015 451.236 459.659 451.951C459.194 453.049 458.823 454.184 458.551 455.345C457.694 458.86 467.867 459.441 467.867 459.441C482.917 462.2 485.656 450.919 485.656 450.919C485.656 450.919 487.537 440.891 488.22 440.124C488.303 439.981 488.357 439.823 488.376 439.659C488.396 439.495 488.381 439.328 488.334 439.17C487.943 437.464 487.205 435.857 486.165 434.45C485.685 433.892 485.656 432.459 485.733 431.175C486.169 431.133 486.6 431.053 487.021 430.935C493.091 429.184 490.616 419.067 490.616 419.067C490.616 419.067 494.72 412.385 494.72 409.794C494.72 407.204 496.176 399.263 496.176 399.263C501.395 389.901 499.34 367.17 500.196 365.329C501.053 363.488 498.399 356.639 496.26 353.544C494.121 350.45 494.978 342.095 496.26 339.672C497.542 337.249 494.978 328.877 494.978 328.877C494.978 328.877 497.458 312.684 497.374 310.153C497.291 307.622 499.513 300.209 499.513 300.209C499.513 300.209 501.736 296.364 501.221 295.195C500.706 294.025 502.928 290.997 502.335 289.677C501.742 288.358 502.845 284.244 503.959 281.821C504.528 280.579 505.235 277.161 505.756 274.12C505.816 273.784 505.876 273.448 505.93 273.118C508.422 274.696 510.723 275.871 511.538 275.553C513.066 274.954 510.633 267.157 508.968 262.299C509.255 262.083 509.375 261.921 509.255 261.849C508.231 261.177 509.369 258.167 509.369 258.167C515.414 254.604 513.359 251.929 511.424 250.37C509.489 248.811 510.741 244.372 510.166 242.573C509.591 240.774 510.855 232.659 511.879 226.752C512.092 225.468 512.082 224.158 511.849 222.878C512.946 221.204 514.078 219.453 515.073 217.834C518.488 212.262 525.785 185.741 525.785 185.741L525.737 185.603C526.45 184.194 526.984 183.048 527.271 182.287C529.482 176.529 525.378 159.137 524.695 155.112ZM471.564 139.843L471.72 139.771C471.72 139.813 471.72 139.855 471.72 139.897L471.564 139.843ZM438.39 424.332C438.018 424.335 437.649 424.261 437.306 424.116L438.39 424.332Z" fill="url(#paint1_linear)"/>
<path d="M375.05 231.04C379.981 232.911 391.442 233.115 396.535 233.115C398.081 233.115 399.039 233.115 399.039 233.115L402.304 226.458L399.039 220.91C399.039 220.91 396.043 220.083 392.065 219.363C386.194 218.308 378.159 217.48 374.331 219.855C367.908 223.831 368.627 228.599 375.05 231.04Z" fill="#FEC2BE"/>
<path opacity="0.1" d="M396.529 233.115C398.075 233.115 399.033 233.115 399.033 233.115L402.298 226.458L399.039 220.91C399.039 220.91 396.044 220.083 392.065 219.363C395.295 221.738 403.059 226.908 396.529 233.115Z" fill="#2E5F7A"/>
<path d="M450.612 151.412L449.174 149.745C449.174 149.745 441.751 161.5 440.972 165.938C440.193 170.376 439.175 175.474 439.175 175.474C439.175 175.474 437.294 181.243 436.071 183.792C434.849 186.341 433.747 188.782 433.639 189.892C433.531 191.001 434.082 193.442 431.752 194.995C429.421 196.549 428.876 200.765 428.876 200.765C428.876 200.765 420.452 208.969 416.019 209.161C411.585 209.353 398.847 211.602 399.291 213.821C399.734 216.04 393.976 217.366 391.646 217.924C389.315 218.481 406.624 225.121 396.523 233.673C396.523 233.673 402.945 235.004 403.611 236.552C404.276 238.099 411.034 235.67 411.034 235.67C411.034 235.67 412.478 232.228 417.462 232.006C422.447 231.784 424.994 229.565 424.994 229.235C424.994 228.905 429.978 226.128 432.782 225.355C435.586 224.581 439.205 224.245 439.319 223.465C439.433 222.686 455.939 151.382 455.939 151.382L450.612 151.412Z" fill="#293F60"/>
<path opacity="0.05" d="M450.612 151.412L449.174 149.745C449.174 149.745 441.751 161.5 440.972 165.938C440.193 170.376 439.175 175.474 439.175 175.474C439.175 175.474 437.294 181.243 436.071 183.792C434.849 186.341 433.747 188.782 433.639 189.892C433.531 191.001 434.082 193.442 431.752 194.995C429.421 196.549 428.876 200.765 428.876 200.765C428.876 200.765 420.452 208.969 416.019 209.161C411.585 209.353 398.847 211.602 399.291 213.821C399.734 216.04 393.976 217.366 391.646 217.924C389.315 218.481 406.624 225.121 396.523 233.673C396.523 233.673 402.945 235.004 403.611 236.552C404.276 238.099 411.034 235.67 411.034 235.67C411.034 235.67 412.478 232.228 417.462 232.006C422.447 231.784 424.994 229.565 424.994 229.235C424.994 228.905 429.978 226.128 432.782 225.355C435.586 224.581 439.205 224.245 439.319 223.465C439.433 222.686 455.939 151.382 455.939 151.382L450.612 151.412Z" fill="#2E5F7A"/>
<path d="M467.867 459.172C482.492 461.918 485.152 450.685 485.152 450.685C485.152 450.685 486.98 440.705 487.645 439.956C487.727 439.814 487.78 439.657 487.8 439.494C487.819 439.331 487.805 439.165 487.758 439.008C487.375 437.316 486.658 435.718 485.65 434.306C484.739 433.226 485.482 428.734 485.482 428.734L468.532 424.41C468.532 424.41 467.035 427.817 466.873 429.4C466.711 430.983 464.213 438.132 464.476 439.134C464.74 440.136 463.398 443.206 463.23 444.79C463.062 446.373 460.989 448.7 460.834 449.528C460.573 450.277 460.267 451.01 459.917 451.723C459.467 452.817 459.106 453.946 458.838 455.099C457.982 458.59 467.867 459.172 467.867 459.172Z" fill="#58514B"/>
<path opacity="0.1" d="M467.867 459.172C482.492 461.918 485.152 450.685 485.152 450.685C485.152 450.685 486.98 440.705 487.645 439.956C487.727 439.814 487.78 439.657 487.8 439.494C487.819 439.331 487.805 439.165 487.758 439.008L484.236 449.108C484.236 449.108 481.33 455.177 470.527 454.266C464.38 453.744 461.355 452.604 459.887 451.717C459.437 452.811 459.076 453.94 458.808 455.093C457.982 458.59 467.867 459.172 467.867 459.172Z" fill="#2E5F7A"/>
<path opacity="0.1" d="M479.251 443.368C479.251 443.368 475.596 443.452 475.344 440.459L479.251 443.368Z" fill="#2E5F7A"/>
<path d="M365.56 280.123L367.878 280.717L367.369 283.074L365.218 282.528L365.56 280.123Z" fill="#9BC9E2"/>
<path opacity="0.1" d="M365.56 280.123L367.878 280.717L367.369 283.074L365.218 282.528L365.56 280.123Z" fill="#2E5F7A"/>
<path d="M434.373 170.382L433.658 173.195L436.079 173.812L436.794 170.999L434.373 170.382Z" fill="#367198"/>
<path d="M423.504 167.609L422.788 170.422L430.818 172.468L431.534 169.655L423.504 167.609Z" fill="#367198"/>
<path d="M431.529 169.662L430.814 172.475L433.653 173.198L434.368 170.385L431.529 169.662Z" fill="#367198"/>
<path d="M423.627 167.245C423.436 167.335 423.25 167.431 423.064 167.509L423.532 167.629L422.813 170.442L419.26 169.536C418.99 168.898 418.883 168.204 418.946 167.514C419.01 166.824 419.243 166.161 419.625 165.584C420.302 164.491 421.376 163.704 422.621 163.389C423.382 163.17 424.125 162.893 424.844 162.561L423.627 167.245Z" fill="#9BC9E2"/>
<path d="M432.105 179.39L433.19 179.672C433.365 179.717 433.547 179.727 433.726 179.701C433.905 179.675 434.077 179.614 434.232 179.522C434.387 179.429 434.523 179.307 434.631 179.162C434.739 179.017 434.817 178.852 434.861 178.676L436.071 173.83L433.675 173.231L432.105 179.39Z" fill="#367198"/>
<path d="M431.278 155.304C430.452 158.543 428.049 161.068 424.802 162.561L429.056 145.828C431.212 148.701 432.117 152.066 431.278 155.304Z" fill="#367198"/>
<path d="M430.595 179.006C430.244 178.916 429.942 178.689 429.757 178.377C429.572 178.064 429.518 177.691 429.607 177.339L430.841 172.487L422.813 170.442L398.326 266.725C400.107 270.194 400.559 274.196 399.598 277.975C398.637 281.755 396.329 285.053 393.108 287.248L392.539 289.491L403.401 292.28L432.105 179.414L430.595 179.006Z" fill="#367198"/>
<path d="M429.607 177.339C429.518 177.691 429.572 178.064 429.757 178.377C429.942 178.689 430.244 178.916 430.595 179.006L432.105 179.39L433.675 173.213L430.841 172.487L429.607 177.339Z" fill="#367198"/>
<path d="M419.619 165.584C420.3 164.495 421.372 163.709 422.615 163.389C423.373 163.168 424.114 162.892 424.832 162.561L429.092 145.828C426.425 142.438 422.689 140.053 418.493 139.063C409.704 136.82 401.184 140.46 399.477 147.19C398.668 150.362 399.518 153.655 401.562 156.486C402.344 157.559 403.256 158.532 404.276 159.382L404.318 159.514C404.895 160.449 405.156 161.545 405.064 162.64C404.971 163.735 404.529 164.772 403.802 165.596L350.084 151.904L337.964 199.571C339.93 197.978 342.236 196.86 344.704 196.304C347.172 195.749 349.735 195.771 352.193 196.369C361.246 198.678 366.572 208.454 364.092 218.2C361.611 227.945 352.289 233.985 343.236 231.706C340.783 231.059 338.513 229.852 336.603 228.18C334.694 226.508 333.197 224.416 332.23 222.068L319.786 270.983L367.369 283.104C365.826 281.143 364.749 278.855 364.222 276.415C363.695 273.975 363.73 271.446 364.326 269.022C366.632 259.966 376.392 254.628 386.134 257.111C388.734 257.748 391.168 258.936 393.271 260.595C395.375 262.253 397.098 264.344 398.326 266.725L422.813 170.442L419.296 169.536C419.02 168.902 418.906 168.209 418.962 167.519C419.018 166.83 419.244 166.165 419.619 165.584Z" fill="#9BC9E2"/>
<path d="M423.526 167.629L423.628 167.245C423.442 167.335 423.256 167.431 423.064 167.515L423.526 167.629Z" fill="#9BC9E2"/>
<g opacity="0.1">
<path opacity="0.1" d="M434.388 170.4L431.554 169.674L423.532 167.629L423.633 167.245L424.832 162.561C424.113 162.893 423.37 163.17 422.609 163.389C421.364 163.704 420.29 164.491 419.613 165.584C419.437 165.886 419.289 166.203 419.17 166.531C419.287 166.203 419.433 165.886 419.607 165.584C420.288 164.495 421.36 163.709 422.603 163.389C423.361 163.168 424.102 162.892 424.82 162.561L429.08 145.828C426.413 142.438 422.677 140.053 418.481 139.063C409.692 136.82 401.172 140.46 399.465 147.19C398.656 150.362 399.506 153.655 401.55 156.486C402.332 157.559 403.244 158.532 404.264 159.382L404.306 159.514C404.883 160.449 405.144 161.545 405.052 162.64C404.959 163.735 404.517 164.772 403.79 165.596L350.072 151.904L337.952 199.571C339.919 197.976 342.228 196.857 344.698 196.301C347.168 195.746 349.733 195.769 352.193 196.369C361.246 198.678 366.572 208.454 364.092 218.2C361.611 227.945 352.289 233.985 343.236 231.706C340.783 231.059 338.513 229.852 336.603 228.18C334.694 226.508 333.197 224.416 332.23 222.068L319.786 270.983L367.369 283.104C365.826 281.143 364.749 278.855 364.222 276.415C363.695 273.975 363.73 271.446 364.326 269.022C366.632 259.966 376.392 254.628 386.134 257.111C388.734 257.748 391.168 258.936 393.271 260.595C395.375 262.253 397.098 264.343 398.326 266.725C400.107 270.194 400.559 274.196 399.598 277.975C398.637 281.755 396.329 285.053 393.108 287.248L392.539 289.491L403.401 292.28L432.105 179.414L433.19 179.696C433.365 179.741 433.547 179.751 433.726 179.725C433.905 179.699 434.077 179.638 434.232 179.546C434.387 179.453 434.523 179.331 434.631 179.186C434.739 179.041 434.817 178.876 434.861 178.7L436.071 173.83L436.784 171.018L434.388 170.4ZM423.34 167.401C423.25 167.443 423.16 167.491 423.07 167.527L423.34 167.401ZM419.266 169.554L422.819 170.46L419.266 169.554Z" fill="#2E5F7A"/>
<path opacity="0.1" d="M431.278 155.304C432.099 152.066 431.194 148.707 429.056 145.828L424.802 162.561C428.067 161.068 430.47 158.537 431.278 155.304Z" fill="#2E5F7A"/>
</g>
<path d="M434.961 168.063L434.246 170.876L436.667 171.493L437.383 168.68L434.961 168.063Z" fill="#367198"/>
<path d="M424.092 165.29L423.376 168.103L431.406 170.149L432.122 167.336L424.092 165.29Z" fill="#367198"/>
<path d="M432.119 167.331L431.403 170.144L434.243 170.867L434.958 168.054L432.119 167.331Z" fill="#367198"/>
<path d="M424.221 164.918L423.657 165.188L424.119 165.302L423.406 168.133L419.853 167.227C419.579 166.59 419.469 165.896 419.532 165.205C419.595 164.515 419.829 163.852 420.212 163.275C420.891 162.184 421.964 161.398 423.208 161.08C423.967 160.861 424.708 160.584 425.425 160.252L424.221 164.918Z" fill="#9BC9E2"/>
<path d="M432.692 177.069L433.783 177.345C433.959 177.393 434.143 177.405 434.324 177.38C434.505 177.356 434.679 177.295 434.837 177.203C434.994 177.11 435.131 176.987 435.24 176.84C435.35 176.694 435.428 176.527 435.472 176.349L436.707 171.503L434.31 170.904L432.692 177.069Z" fill="#367198"/>
<path d="M431.878 152.983C431.057 156.216 428.654 158.741 425.401 160.234L429.661 143.501C431.806 146.374 432.71 149.739 431.878 152.983Z" fill="#367198"/>
<path d="M431.188 176.685C431.014 176.64 430.85 176.562 430.705 176.453C430.561 176.345 430.439 176.209 430.348 176.054C430.256 175.898 430.195 175.726 430.17 175.548C430.145 175.369 430.155 175.187 430.2 175.012L431.398 170.166L423.406 168.133L398.925 264.404C400.709 267.872 401.164 271.873 400.202 275.653C399.241 279.433 396.93 282.73 393.707 284.921L393.138 287.164L404.006 289.935L432.704 177.069L431.188 176.685Z" fill="#367198"/>
<path d="M430.2 175.012C430.155 175.187 430.145 175.369 430.17 175.548C430.195 175.726 430.256 175.898 430.348 176.054C430.439 176.209 430.561 176.345 430.705 176.453C430.85 176.562 431.014 176.64 431.188 176.685L432.692 177.069L434.274 170.886L431.434 170.166L430.2 175.012Z" fill="#367198"/>
<path d="M420.212 163.257C420.891 162.166 421.964 161.38 423.208 161.062C423.967 160.843 424.708 160.566 425.425 160.234L429.679 143.501C427.014 140.111 423.28 137.726 419.086 136.736C410.291 134.499 401.777 138.133 400.064 144.869C399.261 148.035 400.106 151.328 402.155 154.159C402.937 155.234 403.849 156.209 404.869 157.061L404.911 157.187C405.486 158.123 405.747 159.218 405.654 160.313C405.561 161.408 405.12 162.444 404.395 163.269L350.671 149.583L338.533 197.244C340.502 195.646 342.814 194.526 345.288 193.972C347.762 193.417 350.33 193.443 352.792 194.048C361.839 196.351 367.171 206.127 364.691 215.879C362.211 225.63 352.882 231.658 343.805 229.355C341.355 228.703 339.089 227.494 337.183 225.821C335.277 224.148 333.783 222.057 332.817 219.711L320.379 268.626L367.956 280.753C366.414 278.791 365.339 276.503 364.812 274.063C364.286 271.623 364.322 269.095 364.919 266.671C367.219 257.609 376.985 252.277 386.727 254.76C389.332 255.397 391.77 256.589 393.875 258.253C395.98 259.917 397.702 262.015 398.925 264.404L423.406 168.133L419.853 167.227C419.579 166.587 419.469 165.89 419.532 165.197C419.595 164.504 419.829 163.837 420.212 163.257Z" fill="#9BC9E2"/>
<path d="M424.119 165.308L424.215 164.918C424.029 165.008 423.843 165.104 423.657 165.188L424.119 165.308Z" fill="#9BC9E2"/>
<path d="M415.701 345.058C417.498 347.799 419.607 359.782 419.607 359.782C419.607 359.782 421.021 362.522 420.937 364.855C420.854 367.188 422.267 371.453 422.267 371.453L426.923 388.671C426.923 388.671 426.419 393.247 428.169 396.468C429.918 399.689 429.745 398.711 428.918 404.367C428.091 410.022 429.912 415.264 432.902 416.961C435.892 418.659 431.572 422.533 431.572 422.533C431.572 422.533 450.684 427.691 454.674 424.53C458.665 421.37 452.595 405.728 452.595 405.728C452.595 405.728 453.596 392.588 452.931 390.675C452.266 388.761 449.438 372.46 449.438 372.46C449.438 372.46 447.695 365.053 448.36 363.806C449.025 362.558 447.946 359.008 447.946 359.008C447.946 359.008 445.118 355.014 445.37 353.766C445.622 352.519 444.537 350.276 444.537 350.276C444.537 350.276 452.997 337.261 452.248 334.82C451.499 332.379 452.577 328.499 452.577 328.499L454.938 324.457C456.514 321.758 458.419 318.525 459.06 317.518C459.875 316.234 461.84 310.776 462.936 307.628L463.715 305.373C463.715 305.373 465.045 329.83 466.208 332.325C467.37 334.82 469.114 354.516 469.114 354.516C469.76 356.27 470.043 358.137 469.946 360.003C469.779 363.08 472.606 376.473 472.606 376.473C472.606 376.473 473.853 385.955 473.02 388.467C472.187 390.98 472.852 409.351 472.852 409.351C472.852 409.351 468.281 412.949 467.118 415.672C465.956 418.395 467.286 425.868 467.286 425.868C467.286 425.868 480.581 432.525 486.458 430.78C492.336 429.034 489.945 418.965 489.945 418.965C489.945 418.965 493.935 412.313 493.935 409.734C493.935 407.156 495.385 399.281 495.385 399.281C500.454 389.967 498.459 367.344 499.292 365.515C500.125 363.686 497.542 356.861 495.469 353.784C493.396 350.707 494.223 342.389 495.469 339.99C496.715 337.591 494.187 329.249 494.187 329.249C494.187 329.249 496.584 313.109 496.512 310.614C496.44 308.119 498.591 300.719 498.591 300.719C498.591 300.719 500.748 296.892 500.25 295.723C499.753 294.553 501.91 291.567 501.329 290.235C500.748 288.904 501.832 284.837 502.91 282.438C503.462 281.203 504.151 277.796 504.708 274.78C505.217 271.907 505.595 269.382 505.595 269.382L491.88 258.317L457.646 249.32L444.771 245.164L432.219 264.956C431.332 266.399 430.518 267.886 429.781 269.412C428.792 271.469 427.911 273.76 428.067 275.187C428.276 276.989 427.866 278.808 426.905 280.345C426.905 280.345 419.422 304.047 419.589 310.872C419.757 317.697 416.929 332.661 416.929 332.661C416.929 332.661 413.856 342.305 415.701 345.058Z" fill="#000A1E"/>
<path d="M466.304 152.24C466.831 152.024 502.976 137.078 497.998 134.109C495.044 132.346 491.407 124.873 488.915 119.026C487.177 114.941 485.997 111.649 485.997 111.649C485.997 111.649 456.987 106.491 467.37 124.291C469.007 127.022 470.24 129.975 471.031 133.06C473.99 145.187 466.543 152.018 466.304 152.24Z" fill="#FEC2BE"/>
<path opacity="0.1" d="M467.37 124.291C469.007 127.022 470.24 129.975 471.031 133.06C474.711 132.803 478.252 131.545 481.271 129.422C484.29 127.299 486.672 124.39 488.16 121.011C488.448 120.363 488.7 119.701 488.915 119.026C487.177 114.941 485.997 111.649 485.997 111.649C485.997 111.649 456.987 106.491 467.37 124.291Z" fill="#2E5F7A"/>
<path d="M449.336 112.146C449.338 117.281 451.285 122.225 454.784 125.979C458.283 129.734 463.074 132.021 468.191 132.379C473.308 132.737 478.371 131.14 482.358 127.909C486.345 124.678 488.96 120.054 489.675 114.97C490.391 109.885 489.154 104.718 486.214 100.51C483.274 96.3023 478.849 93.367 473.832 92.296C468.815 91.225 463.58 92.098 459.18 94.739C454.781 97.3799 451.546 101.592 450.127 106.527C449.602 108.354 449.336 110.245 449.336 112.146Z" fill="#FEC2BE"/>
<path opacity="0.1" d="M429.781 269.406C431.902 271.337 432.716 275.014 432.716 275.014C432.716 275.014 442.692 281.833 442.027 277.508C441.362 273.184 447.179 255.714 447.179 255.714L446.514 279.506C446.514 279.506 478.418 278.006 480.749 275.679C483.079 273.352 496.703 268.89 496.703 268.89C496.703 268.89 500.897 272.243 504.708 274.786C505.217 271.913 505.595 269.388 505.595 269.388L491.88 258.323L457.646 249.326L444.771 245.17L432.219 264.962C431.332 266.401 430.518 267.884 429.781 269.406Z" fill="#2E5F7A"/>
<path d="M428.732 267.529C431.392 269.19 432.387 273.682 432.387 273.682C432.387 273.682 442.356 280.501 441.691 276.177C441.026 271.853 446.844 254.382 446.844 254.382L446.179 278.174C446.179 278.174 478.089 276.687 480.407 274.348C482.726 272.009 496.362 267.529 496.362 267.529C496.362 267.529 508.165 277.011 510.322 276.177C512.479 275.343 506.499 259.21 506.499 259.21L500.358 164.72C500.358 164.72 502.018 136.604 499.525 135.603C499.141 135.447 498.786 135.226 498.477 134.949C496.835 133.473 496.344 130.475 496.2 127.956C496.038 124.957 492.048 126.456 492.048 126.456L494.373 129.455L473.781 141.99L473.601 142.098C472.799 141.675 471.973 141.3 471.127 140.976C469.329 140.275 466.879 139.615 465.291 140.269C464.404 140.72 463.651 141.399 463.11 142.236C461.936 144.003 460.993 145.914 460.306 147.921L452.847 160.558C452.847 160.558 449.025 177.351 449.025 178.029C449.025 178.706 447.862 194 446.532 195.661C445.202 197.322 443.872 205.641 444.369 208.136C444.867 210.631 443.537 219.951 443.537 219.951C438.055 224.443 435.233 239.742 435.233 239.742C435.233 239.742 426.569 256.895 425.886 258.874C425.203 260.854 426.072 265.891 428.732 267.529Z" fill="white"/>
<path opacity="0.1" d="M473.781 142.65C475.8 145.648 481.635 149.847 481.635 149.847L498.477 135.603C496.835 134.127 496.344 131.128 496.2 128.604C496.038 125.605 492.048 127.11 492.048 127.11L492.534 127.71C492.765 128.009 492.931 128.353 493.02 128.721C493.109 129.088 493.12 129.47 493.052 129.842C492.983 130.214 492.837 130.568 492.623 130.879C492.409 131.191 492.131 131.453 491.809 131.65L473.781 142.65Z" fill="#2E5F7A"/>
<path d="M473.781 141.984C475.8 144.983 481.635 149.181 481.635 149.181L498.477 134.937C496.835 133.461 496.344 130.463 496.2 127.944C496.038 124.945 492.048 126.444 492.048 126.444L492.534 127.044C492.765 127.343 492.931 127.687 493.02 128.054C493.109 128.421 493.12 128.802 493.051 129.174C492.983 129.545 492.837 129.898 492.623 130.209C492.408 130.52 492.131 130.782 491.809 130.979L473.781 141.984Z" fill="white"/>
<path opacity="0.1" d="M465.992 144.227C468.167 146.83 471.252 149.787 471.109 148.305C470.965 146.824 472.948 143.555 474.212 142.092C472.238 141.465 470.11 141.525 468.173 142.26C467.284 142.709 466.531 143.389 465.992 144.227Z" fill="#2E5F7A"/>
<path d="M465.663 143.225C467.837 145.834 470.917 148.785 470.773 147.31C470.629 145.834 472.409 143.429 473.673 141.966C471.876 141.264 469.431 140.604 467.837 141.264C466.951 141.712 466.2 142.389 465.663 143.225Z" fill="white"/>
<path d="M471.109 157.067C471.843 157.067 472.439 156.471 472.439 155.736C472.439 155.001 471.843 154.405 471.109 154.405C470.374 154.405 469.778 155.001 469.778 155.736C469.778 156.471 470.374 157.067 471.109 157.067Z" fill="#FF718D"/>
<path d="M461.025 192.998C461.76 192.998 462.355 192.402 462.355 191.667C462.355 190.931 461.76 190.335 461.025 190.335C460.291 190.335 459.695 190.931 459.695 191.667C459.695 192.402 460.291 192.998 461.025 192.998Z" fill="#FF718D"/>
<path d="M449.618 229.379C450.352 229.379 450.948 228.783 450.948 228.047C450.948 227.312 450.352 226.716 449.618 226.716C448.883 226.716 448.288 227.312 448.288 228.047C448.288 228.783 448.883 229.379 449.618 229.379Z" fill="#FF718D"/>
<path d="M449.282 268.968C450.017 268.968 450.612 268.372 450.612 267.637C450.612 266.901 450.017 266.305 449.282 266.305C448.548 266.305 447.952 266.901 447.952 267.637C447.952 268.372 448.548 268.968 449.282 268.968Z" fill="#FF718D"/>
<path d="M465.237 174.034C465.972 174.034 466.567 173.438 466.567 172.703C466.567 171.968 465.972 171.371 465.237 171.371C464.503 171.371 463.907 171.968 463.907 172.703C463.907 173.438 464.503 174.034 465.237 174.034Z" fill="#FF718D"/>
<path d="M456.262 210.967C456.997 210.967 457.592 210.371 457.592 209.635C457.592 208.9 456.997 208.304 456.262 208.304C455.528 208.304 454.932 208.9 454.932 209.635C454.932 210.371 455.528 210.967 456.262 210.967Z" fill="#FF718D"/>
<path d="M447.509 247.233C448.243 247.233 448.839 246.637 448.839 245.902C448.839 245.167 448.243 244.57 447.509 244.57C446.774 244.57 446.179 245.167 446.179 245.902C446.179 246.637 446.774 247.233 447.509 247.233Z" fill="#FF718D"/>
<path d="M449.504 273.406C450.239 273.406 450.834 272.81 450.834 272.075C450.834 271.339 450.239 270.743 449.504 270.743C448.769 270.743 448.174 271.339 448.174 272.075C448.174 272.81 448.769 273.406 449.504 273.406Z" fill="#FF718D"/>
<path opacity="0.1" d="M498.477 135.746C498.477 135.746 498.255 133.749 501.131 137.192C504.007 140.634 509.441 143.621 509.441 143.621C509.441 143.621 521.741 152.275 522.406 156.264C523.071 160.252 527.055 177.561 524.952 183.324C522.849 189.088 506.769 216.712 506.769 216.712C506.769 216.712 510.963 221.708 509.986 227.586C509.01 233.463 507.769 241.56 508.321 243.335C508.872 245.11 507.656 249.542 509.519 251.096C511.382 252.649 513.395 255.294 507.524 258.856C507.524 258.856 506.415 261.855 507.41 262.521C508.404 263.186 492.677 270.06 486.44 266.401C480.203 262.743 469.066 233.463 468.826 226.92C468.586 220.377 472.259 198.732 474.254 193.646C476.249 188.56 482.234 168.691 484.781 164.258C487.327 159.826 498.477 135.746 498.477 135.746Z" fill="#2E5F7A"/>
<path d="M499.136 135.746C499.136 135.746 498.914 133.749 501.796 137.192C504.678 140.634 510.106 143.621 510.106 143.621C510.106 143.621 522.406 152.275 523.071 156.264C523.736 160.252 527.72 177.561 525.618 183.324C523.515 189.088 507.446 216.712 507.446 216.712C507.446 216.712 511.64 221.708 510.663 227.586C509.687 233.463 508.446 241.56 508.998 243.335C509.549 245.11 508.333 249.542 510.196 251.096C512.059 252.649 514.072 255.294 508.201 258.856C508.201 258.856 507.092 261.855 508.087 262.521C509.082 263.186 493.354 270.06 487.117 266.401C480.88 262.743 469.743 233.463 469.503 226.92C469.263 220.377 472.936 198.732 474.931 193.646C476.926 188.56 482.911 168.691 485.458 164.258C488.004 159.826 499.136 135.746 499.136 135.746Z" fill="#293F60"/>
<path opacity="0.1" d="M503.569 154.627C503.569 154.627 494.043 165.164 494.373 172.151C494.373 172.151 494.265 160.834 503.569 154.627Z" fill="#2E5F7A"/>
<path opacity="0.1" d="M490.389 171.929C490.389 172.259 483.96 196.213 484.296 199.212C484.631 202.21 482.408 211.075 482.408 211.075L479.413 210.301C479.413 210.301 481.737 197.988 482.181 193.442C482.624 188.896 490.389 171.929 490.389 171.929Z" fill="#2E5F7A"/>
<path opacity="0.1" d="M487.836 240.246C488.058 240.576 503.018 257.543 498.806 258.766C494.595 259.99 487.836 240.246 487.836 240.246Z" fill="#2E5F7A"/>
<path opacity="0.1" d="M500.136 235.904C500.466 236.126 506.128 248.103 506.781 244.9C507.434 241.698 501.91 253.663 501.023 244.792L500.136 235.904Z" fill="#2E5F7A"/>
<path opacity="0.1" d="M471.42 139.543C471.42 139.543 465.243 135.77 457.484 145.42C457.484 145.42 451.835 148.635 450.175 149.415C448.515 150.194 446.628 170.82 446.628 170.82C446.628 170.82 442.973 179.69 443.968 184.794C444.963 189.898 441.092 207.416 441.092 207.416C441.092 207.416 434.658 238.903 434.873 239.802C435.089 240.702 441.41 229.931 441.302 224.605C441.194 219.279 446.616 202.648 447.395 201.647C448.174 200.645 453.488 172.151 453.488 172.151C453.488 172.151 457.808 160.06 460.576 156.066C463.344 152.072 466.783 144.533 468.221 143.201C469.256 142.305 470.412 141.558 471.654 140.982L471.42 139.543Z" fill="#2E5F7A"/>
<path d="M471.498 139.543C471.498 139.543 464.572 135.77 456.819 145.42C456.819 145.42 451.164 148.635 449.504 149.415C447.844 150.194 445.957 170.82 445.957 170.82C445.957 170.82 442.302 179.69 443.297 184.794C444.292 189.898 440.421 207.416 440.421 207.416C440.421 207.416 433.992 238.915 434.214 239.802C434.436 240.69 440.751 229.931 440.643 224.605C440.535 219.279 445.957 202.648 446.736 201.647C447.515 200.645 452.847 172.151 452.847 172.151C452.847 172.151 457.167 160.06 459.935 156.066C462.703 152.072 466.142 144.533 467.58 143.201C469.018 141.87 471.678 140.982 471.678 140.982L471.498 139.543Z" fill="#293F60"/>
<path d="M441.086 208.856C441.086 208.856 427.905 200.207 421.53 204.477C415.156 208.748 404.755 214.793 414.994 219.171C425.233 223.549 439.421 222.71 439.421 222.71L441.086 208.856Z" fill="#FEC2BE"/>
<path opacity="0.1" d="M450.253 292.316C452.218 296.514 453.848 317.733 454.938 324.457C456.514 321.758 458.419 318.525 459.06 317.518C459.875 316.234 461.84 310.776 462.936 307.628C461.684 304.581 458.227 295.849 458.227 292.634C458.227 288.724 451.912 283.818 451.912 283.818C451.912 283.818 447.928 287.326 450.253 292.316Z" fill="#2E5F7A"/>
<path opacity="0.1" d="M492.629 357.443C492.629 357.443 478.005 351.205 473.685 355.643C469.365 360.081 492.629 357.443 492.629 357.443Z" fill="#2E5F7A"/>
<path opacity="0.1" d="M484.403 359.938C484.403 359.938 499.196 368.256 494.127 369.647C489.059 371.039 484.403 359.938 484.403 359.938Z" fill="#2E5F7A"/>
<path opacity="0.1" d="M440.199 352.705C440.199 352.705 446.514 353.118 444.106 354.366C441.697 355.613 440.199 352.705 440.199 352.705Z" fill="#2E5F7A"/>
<path opacity="0.1" d="M432.303 354.618C432.387 355.032 450.666 360.939 447.095 363.614C443.525 366.289 432.303 354.618 432.303 354.618Z" fill="#2E5F7A"/>
<path opacity="0.1" d="M490.467 405.524C487.728 405.104 472.439 398.033 478.418 403.125C484.397 408.217 490.467 405.524 490.467 405.524Z" fill="#2E5F7A"/>
<path opacity="0.1" d="M482.905 411.096C482.905 411.096 481.575 416.254 476.507 415.588C471.438 414.922 482.905 411.096 482.905 411.096Z" fill="#2E5F7A"/>
<path opacity="0.1" d="M487.147 421.573C486.231 421.328 475.344 416.338 475.099 418.665C474.853 420.992 485.482 425.07 486.315 423.822C486.792 423.163 487.08 422.385 487.147 421.573Z" fill="#2E5F7A"/>
<path opacity="0.1" d="M451.912 415.588C450.582 415.504 438.132 411.51 435.628 415.084L451.912 415.588Z" fill="#2E5F7A"/>
<path opacity="0.1" d="M440.613 417.915C440.613 417.915 438.45 416.002 436.293 416.997C434.136 417.993 440.613 417.915 440.613 417.915Z" fill="#2E5F7A"/>
<path opacity="0.1" d="M468.203 438.546C468.063 439.253 467.721 439.904 467.219 440.42C466.718 440.936 466.077 441.296 465.375 441.455L468.203 438.546Z" fill="#2E5F7A"/>
<path d="M404.797 446.361C405.63 449.773 417.265 450.103 422.831 449.192C428.397 448.28 439.948 444.945 439.948 444.945C439.948 444.945 452.08 443.782 455.651 442.289C459.222 440.795 456.4 436.963 456.4 436.963C456.4 436.963 456.4 436.831 456.4 436.603C456.484 435.212 456.735 430.168 455.879 428.806C454.884 427.223 455.465 422.065 455.465 422.065C455.465 422.065 438.264 425.394 437.929 423.816C437.593 422.239 434.933 419.99 433.693 419.492C432.453 418.994 431.53 423.649 431.53 423.649C431.53 423.649 423.741 430.306 423.22 432.717C422.699 435.128 417.229 436.375 417.229 436.375C417.229 436.375 408.919 438.702 406.756 439.866C406.128 440.161 405.588 440.614 405.187 441.18C404.786 441.747 404.538 442.408 404.467 443.098C404.377 444.197 404.488 445.303 404.797 446.361Z" fill="#58514B"/>
<path opacity="0.1" d="M404.797 446.361C405.63 449.773 417.265 450.103 422.831 449.192C428.397 448.28 439.948 444.945 439.948 444.945C439.948 444.945 452.08 443.782 455.651 442.289C459.222 440.795 456.4 436.963 456.4 436.963C456.4 436.963 456.4 436.831 456.4 436.603L439.025 440.459C439.025 440.459 430.464 444.118 424.982 444.118C420.188 444.118 409.464 446.079 404.491 443.104C404.393 444.199 404.497 445.303 404.797 446.361Z" fill="#2E5F7A"/>
<path opacity="0.1" d="M428.313 433.22C428.313 433.22 429.145 438.708 432.471 440.537L428.313 433.22Z" fill="#2E5F7A"/>
<path opacity="0.1" d="M450.127 106.527C450.443 106.694 450.774 106.833 451.116 106.941C452.673 107.361 454.195 106.305 455.579 105.465C456.963 104.626 458.874 104.002 460.073 105.093C461.636 106.515 460.504 109.55 462.116 110.923C463.134 111.793 464.752 111.493 465.884 112.206C467.017 112.92 467.358 114.485 467.646 115.835C467.933 117.184 468.508 118.726 469.826 119.122C471.145 119.517 472.373 118.648 473.673 118.696C473.942 118.696 474.272 118.738 474.44 118.546C474.559 118.37 474.604 118.155 474.566 117.946C474.403 116.334 474.548 114.706 474.991 113.148C475.524 111.613 476.788 110.227 478.37 109.981C480.701 109.622 482.66 111.667 484.032 113.58C485.474 115.606 486.787 117.721 487.962 119.913C488.037 120.055 488.103 120.201 488.16 120.351C489.285 117.806 489.876 115.056 489.895 112.273C489.914 109.49 489.36 106.732 488.269 104.172C487.178 101.612 485.573 99.3036 483.553 97.3909C481.533 95.4783 479.141 94.002 476.527 93.0538C473.913 92.1057 471.132 91.7059 468.357 91.8794C465.582 92.053 462.872 92.796 460.396 94.0625C457.92 95.3289 455.73 97.0916 453.964 99.241C452.197 101.39 450.891 103.881 450.127 106.557V106.527Z" fill="#2E5F7A"/>
<path d="M484.032 113.244C482.66 111.313 480.701 109.274 478.364 109.646C476.764 109.891 475.53 111.277 474.991 112.806C474.547 114.364 474.404 115.993 474.572 117.604C474.605 117.814 474.558 118.028 474.44 118.204C474.254 118.402 473.942 118.372 473.673 118.36C472.373 118.312 471.079 119.158 469.826 118.786C468.574 118.414 467.933 116.849 467.646 115.499C467.358 114.15 467.047 112.608 465.884 111.871C464.722 111.133 463.134 111.457 462.116 110.581C460.504 109.214 461.642 106.173 460.073 104.752C458.874 103.666 456.963 104.29 455.579 105.129C454.195 105.969 452.673 107.019 451.11 106.599C450.582 106.455 450.109 106.155 449.594 105.957C447.131 105.016 443.938 106.611 441.913 104.92C441.178 104.184 440.649 103.267 440.379 102.263C439.823 100.904 439.447 99.4786 439.259 98.0225C439.08 96.5506 439.484 95.0671 440.385 93.8902C441.703 92.3369 443.932 91.9471 445.616 90.8015C447.048 89.818 448.012 88.3246 448.959 86.8552C449.905 85.3858 450.822 83.8565 452.206 82.8189C453.59 81.7814 455.531 81.2656 457.077 82.0513C457.565 82.3917 458.105 82.6491 458.677 82.8129C459.3 82.8209 459.912 82.6525 460.444 82.3271C466.208 79.6103 472.918 80.0901 479.239 80.8997C481.767 81.2236 484.331 81.6014 486.638 82.699C488.945 83.7965 490.982 85.6977 491.629 88.1687C492.144 90.1238 491.749 92.2529 492.372 94.1661C492.791 95.4736 493.654 96.5651 494.169 97.8785C495.517 101.387 493.906 105.237 493.223 108.932C492.48 112.968 492.851 117.328 491.138 121.155C490.802 121.904 490.425 123.218 489.58 122.726C488.981 122.36 488.346 120.231 487.986 119.565C486.804 117.376 485.483 115.264 484.032 113.244Z" fill="#78482E"/>
<path opacity="0.1" d="M520.549 178.25L523.544 186.791C523.544 186.791 516.451 213.18 513.126 218.727C509.8 224.275 504.93 231.37 504.93 231.37C504.93 231.37 496.733 235.478 487.201 233.589C477.669 231.7 449.851 226.716 449.851 226.716C449.851 226.716 447.521 227.16 446.305 225.385C445.088 223.609 438.756 222.71 438.756 222.71C438.756 222.71 431.446 212.064 440.421 207.626C440.421 207.626 441.53 210.067 446.293 208.406C451.056 206.744 452.494 209.731 452.494 209.731C452.494 209.731 460.282 211.285 464.572 210.733C468.862 210.181 479.64 209.953 480.749 209.065C481.03 208.819 481.396 208.693 481.769 208.714C482.143 208.735 482.492 208.902 482.744 209.179C482.744 209.179 485.398 208.184 486.285 207.182C487.171 206.181 488.394 208.292 488.394 208.292C488.394 208.292 489.945 207.404 489.502 206.295C489.059 205.185 490.94 200.975 490.94 200.975C490.94 200.975 491.827 198.198 491.275 195.979C490.724 193.76 494.043 185.783 494.043 185.783C494.087 184.438 493.937 183.092 493.6 181.789C493.043 179.798 497.794 175.792 497.794 175.792C497.794 175.792 502.443 153.163 512.305 160.594C522.166 168.025 520.549 178.25 520.549 178.25Z" fill="#2E5F7A"/>
<path d="M521.184 178.25L524.18 186.791C524.18 186.791 517.086 213.18 513.761 218.727C510.436 224.275 505.571 231.37 505.571 231.37C505.571 231.37 497.374 235.478 487.842 233.589C478.31 231.7 450.505 226.716 450.505 226.716C450.505 226.716 448.18 227.16 446.964 225.385C445.747 223.609 439.421 222.71 439.421 222.71C439.421 222.71 432.111 212.064 441.086 207.626C441.086 207.626 442.195 210.067 446.958 208.406C451.721 206.744 453.159 209.731 453.159 209.731C453.159 209.731 460.947 211.285 465.237 210.733C469.527 210.181 480.305 209.953 481.414 209.065C481.695 208.819 482.061 208.693 482.434 208.714C482.808 208.735 483.157 208.902 483.409 209.179C483.409 209.179 486.063 208.184 486.95 207.182C487.836 206.181 489.059 208.292 489.059 208.292C489.059 208.292 490.61 207.404 490.167 206.295C489.724 205.185 491.605 200.975 491.605 200.975C491.605 200.975 492.492 198.198 491.934 195.979C491.377 193.76 494.708 185.783 494.708 185.783C494.752 184.438 494.602 183.092 494.265 181.789C493.708 179.798 498.459 175.792 498.459 175.792C498.459 175.792 503.108 153.163 512.97 160.594C522.832 168.025 521.184 178.25 521.184 178.25Z" fill="#293F60"/>
<path opacity="0.1" d="M449.174 213.959C449.282 214.739 451.721 217.84 450.834 218.397C449.947 218.955 448.509 218.619 449.839 220.395C451.17 222.17 451.038 224.827 450.169 224.497C449.3 224.167 447.844 220.173 447.844 218.619C447.844 217.066 449.174 213.959 449.174 213.959Z" fill="#2E5F7A"/>
<path opacity="0.1" d="M482.079 212.184C482.079 212.184 482.744 219.951 488.196 222.17C493.648 224.389 482.079 212.184 482.079 212.184Z" fill="#2E5F7A"/>
<path opacity="0.1" d="M493.378 209.515C493.708 209.629 501.131 213.624 497.812 215.951C494.493 218.278 493.378 209.515 493.378 209.515Z" fill="#2E5F7A"/>
<path opacity="0.1" d="M493.822 203.98C493.822 203.98 504.678 206.199 501.011 208.082C497.345 209.965 493.822 203.98 493.822 203.98Z" fill="#2E5F7A"/>
<g opacity="0.1">
<path opacity="0.1" d="M475.015 110.905C475.554 109.376 476.812 107.99 478.388 107.744C480.725 107.384 482.684 109.43 484.056 111.343C485.498 113.369 486.811 115.484 487.986 117.676C488.346 118.342 488.957 120.465 489.58 120.831C490.425 121.329 490.778 120.015 491.138 119.265C492.851 115.451 492.48 111.079 493.223 107.043C493.66 104.686 494.469 102.245 494.648 99.9057C494.906 102.808 493.768 105.861 493.223 108.812C492.48 112.848 492.851 117.208 491.138 121.041C490.802 121.79 490.425 123.104 489.58 122.606C488.981 122.24 488.346 120.117 487.986 119.451C486.811 117.259 485.498 115.144 484.056 113.118C482.684 111.193 480.725 109.148 478.388 109.52C476.788 109.765 475.554 111.151 475.015 112.68C474.748 113.486 474.598 114.326 474.572 115.175C474.453 113.737 474.603 112.288 475.015 110.905Z" fill="#2E5F7A"/>
<path opacity="0.1" d="M440.379 100.361C440.648 101.369 441.177 102.287 441.913 103.024C443.938 104.716 447.131 103.12 449.594 104.062C450.109 104.254 450.582 104.56 451.11 104.704C452.673 105.117 454.201 104.068 455.579 103.228C456.957 102.389 458.88 101.771 460.073 102.856C461.642 104.278 460.504 107.313 462.116 108.686C463.134 109.556 464.752 109.286 465.884 109.975C467.017 110.665 467.358 112.248 467.646 113.574C467.933 114.899 468.502 116.465 469.826 116.86C471.151 117.256 472.373 116.393 473.673 116.441C473.943 116.441 474.272 116.483 474.44 116.285C474.479 116.234 474.509 116.177 474.53 116.117C474.53 116.567 474.53 117.01 474.572 117.454C474.604 117.664 474.557 117.878 474.44 118.054C474.254 118.246 473.943 118.216 473.673 118.204C472.373 118.162 471.079 119.002 469.826 118.63C468.574 118.258 467.933 116.699 467.646 115.343C467.358 113.988 467.047 112.452 465.884 111.745C464.722 111.037 463.134 111.325 462.116 110.455C460.504 109.082 461.642 106.041 460.073 104.626C458.874 103.534 456.963 104.158 455.579 104.998C454.195 105.837 452.673 106.887 451.11 106.473C450.582 106.329 450.109 106.023 449.594 105.831C447.131 104.89 443.938 106.485 441.913 104.794C441.178 104.055 440.649 103.137 440.379 102.131C439.824 100.774 439.447 99.3505 439.259 97.8965C439.217 97.4009 439.229 96.9022 439.295 96.4091C439.503 97.7639 439.867 99.0901 440.379 100.361Z" fill="#2E5F7A"/>
</g>
<path d="M149.144 182.505H147.365V185.408H149.144V182.505Z" fill="#367198"/>
<path d="M150.63 182.505H149.144V185.408H150.63V182.505Z" fill="#367198"/>
<path d="M148.737 199.424H149.144V185.402H147.347V198.051C147.346 198.233 147.381 198.413 147.451 198.582C147.521 198.75 147.624 198.902 147.753 199.03C147.883 199.158 148.036 199.259 148.205 199.327C148.374 199.394 148.555 199.428 148.737 199.424Z" fill="#367198"/>
<path d="M149.39 112.155H149.09C148.91 112.155 148.732 112.191 148.565 112.26C148.399 112.329 148.248 112.43 148.12 112.558C147.993 112.685 147.892 112.836 147.823 113.003C147.754 113.17 147.718 113.348 147.718 113.529V125.524C147.72 125.887 147.865 126.236 148.122 126.493C148.379 126.75 148.727 126.895 149.09 126.897H149.444V112.161L149.39 112.155Z" fill="#367198"/>
<path d="M148.982 139.132C148.618 139.132 148.268 139.276 148.01 139.534C147.752 139.791 147.606 140.14 147.604 140.505V163.41C147.606 163.774 147.752 164.124 148.01 164.381C148.268 164.638 148.618 164.783 148.982 164.783H149.444V139.132H148.982Z" fill="#367198"/>
<path d="M164.632 169.809C164.632 160.459 172.78 152.878 182.833 152.878C192.887 152.878 201.029 160.459 201.029 169.809C201.005 172.307 200.413 174.767 199.297 177.001C198.181 179.235 196.57 181.186 194.588 182.703H240.781V129.506C241.337 128.98 242.027 128.618 242.776 128.459C243.524 128.3 244.302 128.351 245.023 128.606C246.24 128.994 247.263 129.833 247.881 130.951C250.176 134.868 253.788 137.393 257.851 137.393C264.788 137.393 270.432 130.034 270.432 120.948C270.432 111.861 264.812 104.509 257.851 104.509C254.579 104.509 251.602 106.14 249.367 108.821C248.519 109.846 247.801 110.972 247.228 112.173L247.114 112.887C247.114 112.887 244.436 115.178 240.781 113.073V87.4637H206.427C203.284 87.4558 200.273 86.2006 198.054 83.9733C195.835 81.746 194.588 78.7286 194.588 75.5828V73.0758H175.063C173.169 73.0766 171.293 73.451 169.544 74.1777C167.794 74.9043 166.205 75.969 164.867 77.3107C163.529 78.6525 162.468 80.2451 161.745 81.9975C161.022 83.7499 160.651 85.6277 160.653 87.5237V182.703H171.042C169.066 181.182 167.461 179.231 166.351 176.997C165.24 174.762 164.652 172.304 164.632 169.809Z" fill="#9BC9E2"/>
<path d="M336.762 147.019H335.636V182.505H338.134V148.398C338.134 148.033 337.99 147.683 337.733 147.425C337.475 147.166 337.126 147.02 336.762 147.019Z" fill="#367198"/>
<path d="M320.034 304.938V298.94C321.276 297.228 321.945 295.167 321.945 293.051C321.945 290.935 321.276 288.873 320.034 287.161V304.938Z" fill="#367198"/>
<path d="M317.626 307.253H320.022V304.938C319.297 305.782 318.494 306.557 317.626 307.253Z" fill="#9BC9E2"/>
<g opacity="0.1">
<path opacity="0.1" d="M247.198 383.198C249.499 387.115 253.105 389.64 257.168 389.64C264.105 389.64 269.749 382.281 269.749 373.195C269.749 364.109 264.087 356.81 257.168 356.81C253.902 356.81 250.925 358.441 248.69 361.122C247.842 362.147 247.124 363.273 246.551 364.474L246.431 365.188C246.431 365.188 243.753 367.479 240.104 365.374V312.105H188.148C187.727 311.554 187.45 310.907 187.34 310.223C187.231 309.538 187.292 308.837 187.519 308.182C187.907 306.965 188.745 305.941 189.861 305.321C193.773 303.018 196.302 299.408 196.302 295.342C196.302 288.397 188.944 282.747 179.874 282.747C170.803 282.747 163.445 288.379 163.445 295.342C163.445 298.61 165.081 301.597 167.759 303.834C168.783 304.679 169.905 305.396 171.102 305.969L171.174 306.089C171.96 306.85 172.481 307.843 172.661 308.923C172.841 310.002 172.671 311.111 172.175 312.087H148.743V410.733C148.743 416.936 151.205 422.886 155.587 427.272C159.969 431.659 165.912 434.123 172.109 434.123H240.122V381.777C240.677 381.25 241.366 380.887 242.113 380.729C242.861 380.57 243.638 380.621 244.358 380.877C245.566 381.26 246.582 382.09 247.198 383.198Z" fill="#2E5F7A"/>
<path opacity="0.1" d="M159.755 310.029H167.891C165.913 308.508 164.307 306.556 163.195 304.321C162.083 302.085 161.495 299.626 161.474 297.129C161.474 287.779 169.622 280.204 179.67 280.204C189.717 280.204 197.872 287.779 197.872 297.129C197.851 299.626 197.262 302.085 196.151 304.321C195.039 306.556 193.433 308.508 191.455 310.029H240.224V257.474C240.782 256.952 241.471 256.593 242.217 256.434C242.963 256.276 243.739 256.324 244.46 256.574C245.679 256.96 246.705 257.799 247.324 258.919C249.618 262.835 253.225 265.36 257.293 265.36C264.231 265.36 269.875 258.002 269.875 248.921C269.875 239.841 264.255 232.476 257.293 232.476C254.022 232.476 251.044 234.114 248.81 236.789C247.965 237.816 247.247 238.942 246.671 240.141L246.557 240.213C245.754 241.052 244.689 241.593 243.539 241.747C242.388 241.901 241.219 241.658 240.224 241.059V187.801H190.203C189.782 187.25 189.505 186.604 189.395 185.919C189.286 185.235 189.347 184.534 189.574 183.879C189.959 182.66 190.798 181.636 191.916 181.018C195.828 178.721 198.351 175.105 198.351 171.038C198.351 164.093 190.999 158.444 181.929 158.444C172.858 158.444 165.5 164.075 165.5 171.038C165.5 174.313 167.136 177.294 169.808 179.531C170.835 180.376 171.959 181.095 173.157 181.672L173.229 181.786C174.015 182.547 174.536 183.54 174.716 184.62C174.896 185.699 174.726 186.808 174.23 187.783H159.755V185.084H170.443C168.469 183.565 166.866 181.617 165.755 179.386C164.645 177.155 164.056 174.7 164.033 172.208C164.033 162.858 172.181 155.277 182.234 155.277C192.288 155.277 200.43 162.858 200.43 172.208C200.406 174.706 199.813 177.166 198.697 179.4C197.581 181.634 195.971 183.585 193.989 185.102H240.182V131.905C240.738 131.379 241.428 131.017 242.177 130.858C242.925 130.699 243.703 130.75 244.424 131.005C245.641 131.393 246.664 132.232 247.282 133.35C249.577 137.267 253.189 139.792 257.251 139.792C264.189 139.792 269.833 132.433 269.833 123.347C269.833 114.26 264.213 106.908 257.251 106.908C253.98 106.908 251.002 108.539 248.768 111.22C247.92 112.245 247.202 113.371 246.629 114.572L246.515 115.286C246.515 115.286 243.837 117.577 240.182 115.472V65.8549H172.199C166.002 65.8549 160.058 68.3192 155.676 72.7057C151.294 77.0922 148.833 83.0416 148.833 89.245V114.566H148.479C148.115 114.566 147.766 114.711 147.509 114.969C147.252 115.226 147.107 115.575 147.107 115.94V127.935C147.109 128.298 147.254 128.647 147.511 128.904C147.768 129.161 148.116 129.306 148.479 129.308H148.833V141.555H148.371C148.007 141.555 147.657 141.699 147.399 141.957C147.141 142.214 146.995 142.563 146.993 142.928V165.833C146.995 166.197 147.141 166.547 147.399 166.804C147.657 167.061 148.007 167.206 148.371 167.206H148.833V176.202H148.455C148.091 176.202 147.742 176.347 147.485 176.604C147.228 176.862 147.083 177.211 147.083 177.576V184.952H146.784V200.498C146.783 200.678 146.818 200.857 146.886 201.024C146.955 201.191 147.056 201.343 147.184 201.471C147.311 201.598 147.463 201.7 147.63 201.768C147.796 201.837 147.975 201.872 148.156 201.871H148.563V310.029H159.755Z" fill="#2E5F7A"/>
<path opacity="0.1" d="M337.535 150.797C337.535 150.432 337.391 150.082 337.133 149.824C336.876 149.565 336.527 149.419 336.163 149.418H335.336V147.912H334.887V88.0875C334.888 85.1338 334.307 82.2088 333.178 79.4798C332.049 76.7508 330.394 74.2712 328.308 72.1826C326.222 70.094 323.744 68.4374 321.018 67.3074C318.292 66.1774 315.37 65.5962 312.419 65.597H245.017V111.178C246.557 109.132 248.547 107.47 250.833 106.321C253.119 105.171 255.64 104.566 258.198 104.551C267.61 104.551 275.243 112.713 275.243 122.777C275.243 132.841 267.61 141.003 258.198 141.003C255.64 140.989 253.119 140.384 250.833 139.234C248.546 138.084 246.556 136.422 245.017 134.376V184.952H299.538C297.563 183.427 295.959 181.472 294.85 179.235C293.74 176.998 293.153 174.537 293.133 172.04C293.133 162.678 301.264 155.091 311.299 155.091C315.759 155.066 320.084 156.626 323.503 159.493C325.38 160.994 326.896 162.899 327.937 165.067C328.978 167.234 329.519 169.608 329.519 172.013C329.519 174.418 328.978 176.792 327.937 178.959C326.896 181.127 325.38 183.031 323.503 184.533V184.934H335.336V184.892H337.535V150.797Z" fill="#2E5F7A"/>
<path opacity="0.1" d="M319.435 307.337V301.339C319.682 300.979 319.908 300.604 320.112 300.218C320.915 298.756 321.339 297.117 321.346 295.45C321.345 294.338 321.154 293.235 320.783 292.187C320.456 291.254 320.003 290.37 319.435 289.56C316.673 285.584 311.215 282.873 304.924 282.873C295.847 282.873 288.496 288.505 288.496 295.468C288.496 298.742 290.132 301.723 292.804 303.96C293.83 304.806 294.955 305.525 296.153 306.101L296.225 306.215C297.01 306.977 297.53 307.97 297.71 309.049C297.89 310.128 297.72 311.237 297.225 312.213H244.37V361.392C245.888 359.359 247.855 357.705 250.118 356.561C252.381 355.416 254.878 354.812 257.413 354.795C266.754 354.795 274.321 362.951 274.321 373.009C274.321 383.067 266.754 391.229 257.413 391.229C254.878 391.212 252.381 390.607 250.118 389.463C247.855 388.318 245.888 386.665 244.37 384.632V424.329H305.02C308.837 424.329 312.498 422.814 315.2 420.115C317.903 417.417 319.426 413.756 319.435 409.935V312.231V409.869C319.435 413.696 317.916 417.367 315.213 420.073C312.51 422.779 308.843 424.299 305.02 424.299H244.37V433.895H307.279C313.476 433.895 319.419 431.431 323.801 427.044C328.183 422.658 330.645 416.708 330.645 410.505V312.231V309.652H319.435V307.337Z" fill="#2E5F7A"/>
</g>
<path d="M160.354 182.505H150.63V185.408H160.354V182.505Z" fill="#367198"/>
<path d="M160.354 185.402H150.63V198.051C150.63 198.232 150.594 198.411 150.525 198.578C150.456 198.745 150.354 198.897 150.226 199.024C150.098 199.152 149.946 199.253 149.779 199.321C149.612 199.39 149.433 199.425 149.252 199.424H149.144V307.63H160.354V185.402Z" fill="#367198"/>
<path d="M149.144 199.424H149.252C149.433 199.425 149.612 199.39 149.779 199.321C149.946 199.253 150.098 199.152 150.226 199.024C150.354 198.897 150.456 198.745 150.525 198.578C150.594 198.411 150.63 198.232 150.63 198.051V185.402H149.144V199.424Z" fill="#367198"/>
<path d="M150.93 174.931C150.93 174.75 150.894 174.571 150.825 174.404C150.755 174.237 150.654 174.085 150.526 173.957C150.398 173.83 150.246 173.729 150.078 173.66C149.911 173.591 149.732 173.556 149.552 173.557H149.444V182.505H150.93V174.931Z" fill="#367198"/>
<path d="M149.444 173.755H149.054C148.69 173.755 148.341 173.9 148.084 174.157C147.827 174.415 147.682 174.764 147.682 175.129V182.703H149.48L149.444 173.755Z" fill="#367198"/>
<path d="M150.762 125.518V113.523C150.762 113.168 150.625 112.827 150.379 112.572C150.133 112.317 149.798 112.168 149.444 112.155V126.879C149.796 126.865 150.13 126.716 150.375 126.463C150.621 126.209 150.759 125.871 150.762 125.518Z" fill="#367198"/>
<path d="M151.037 163.41V140.505C151.037 140.325 151.002 140.146 150.933 139.98C150.864 139.813 150.763 139.662 150.636 139.534C150.508 139.407 150.357 139.305 150.19 139.236C150.024 139.167 149.846 139.132 149.665 139.132H149.444V164.783H149.653C149.835 164.785 150.014 164.75 150.182 164.682C150.35 164.614 150.503 164.513 150.631 164.385C150.76 164.257 150.862 164.105 150.932 163.938C151.002 163.771 151.037 163.591 151.037 163.41Z" fill="#367198"/>
<path d="M331.891 146.947V182.547H335.935V145.513H333.748C332.724 145.513 331.891 146.155 331.891 146.947Z" fill="#367198"/>
<path d="M250.409 63.198H245.616V73.9934H250.409V63.198Z" fill="#367198"/>
<path d="M250.409 79.3912H245.616V87.1879H250.409V79.3912Z" fill="#367198"/>
<path d="M331.244 307.253H320.034V309.832H331.244V307.253Z" fill="#367198"/>
<path d="M315.511 303.042C314.394 303.661 313.555 304.685 313.168 305.903C312.94 306.559 312.879 307.261 312.988 307.947C313.098 308.632 313.376 309.28 313.797 309.832H320.034V307.253H317.638C318.506 306.557 319.309 305.782 320.034 304.938V298.94C318.842 300.62 317.298 302.02 315.511 303.042Z" fill="#9BC9E2"/>
<path d="M321.946 293.063C321.931 290.949 321.263 288.892 320.034 287.173V298.946C321.261 297.229 321.928 295.174 321.946 293.063Z" fill="#367198"/>
<path d="M174.967 422.098C171.144 422.098 167.477 420.578 164.774 417.872C162.07 415.165 160.552 411.495 160.552 407.668V309.706H149.342V408.334C149.342 414.537 151.804 420.487 156.186 424.873C160.568 429.26 166.511 431.724 172.708 431.724H240.721V422.128L174.967 422.098Z" fill="#367198"/>
<path d="M244.915 378.479C246.134 378.863 247.158 379.703 247.773 380.823C250.074 384.74 253.68 387.265 257.743 387.265C264.681 387.265 270.324 379.906 270.324 370.82C270.324 361.734 264.687 354.411 257.767 354.411C254.501 354.411 251.524 356.042 249.289 358.723C248.441 359.748 247.723 360.874 247.15 362.075L247.03 362.789C247.03 362.789 244.352 365.08 240.703 362.975V309.706H188.747C188.327 309.155 188.049 308.508 187.939 307.824C187.83 307.139 187.891 306.438 188.118 305.783C188.506 304.566 189.344 303.542 190.46 302.923C194.373 300.619 196.901 297.009 196.901 292.943C196.901 285.998 189.544 280.348 180.473 280.348C171.402 280.348 164.045 285.98 164.045 292.943C164.045 296.211 165.68 299.198 168.358 301.435C169.382 302.28 170.505 302.997 171.701 303.57L171.773 303.69C172.559 304.451 173.08 305.444 173.26 306.524C173.44 307.603 173.27 308.712 172.774 309.688H160.552V407.668C160.552 411.495 162.07 415.165 164.774 417.872C167.477 420.578 171.144 422.098 174.967 422.098H240.721V379.378C241.272 378.859 241.953 378.501 242.693 378.342C243.432 378.184 244.201 378.231 244.915 378.479Z" fill="#9BC9E2"/>
<path d="M162.073 294.706C162.073 285.356 170.222 277.781 180.269 277.781C190.316 277.781 198.471 285.356 198.471 294.706C198.454 297.207 197.867 299.671 196.755 301.911C195.643 304.15 194.035 306.107 192.054 307.63H240.823V255.075C241.381 254.553 242.07 254.194 242.816 254.035C243.563 253.877 244.338 253.925 245.059 254.175C246.279 254.561 247.304 255.4 247.923 256.52C250.218 260.436 253.824 262.961 257.892 262.961C264.83 262.961 270.474 255.602 270.474 246.522C270.474 237.442 264.854 230.077 257.892 230.077C254.621 230.077 251.644 231.715 249.409 234.389C248.564 235.417 247.846 236.543 247.27 237.742L247.156 237.814C246.353 238.653 245.288 239.194 244.138 239.348C242.987 239.502 241.818 239.259 240.823 238.66V185.402H190.802C190.382 184.851 190.104 184.205 189.994 183.52C189.885 182.836 189.946 182.135 190.173 181.48C190.558 180.261 191.397 179.237 192.515 178.619C196.428 176.322 198.95 172.706 198.95 168.639C198.95 161.694 191.599 156.045 182.528 156.045C173.457 156.045 166.1 161.676 166.1 168.639C166.1 171.914 167.735 174.895 170.407 177.132C171.434 177.977 172.558 178.696 173.756 179.273L173.828 179.387C174.614 180.148 175.135 181.141 175.315 182.221C175.495 183.3 175.325 184.409 174.829 185.384H160.354V307.63H168.49C166.509 306.107 164.901 304.15 163.789 301.911C162.677 299.671 162.09 297.207 162.073 294.706Z" fill="#9BC9E2"/>
<path d="M149.444 86.84V112.161C149.798 112.174 150.133 112.323 150.379 112.578C150.625 112.833 150.762 113.174 150.762 113.529V125.524C150.761 125.878 150.623 126.218 150.377 126.472C150.132 126.727 149.797 126.877 149.444 126.891V139.138H149.653C149.834 139.138 150.012 139.173 150.178 139.242C150.345 139.311 150.496 139.413 150.624 139.54C150.751 139.668 150.852 139.819 150.921 139.986C150.99 140.152 151.025 140.331 151.025 140.511V163.416C151.025 163.78 150.881 164.129 150.624 164.387C150.366 164.644 150.017 164.789 149.653 164.789H149.432V173.785H149.54C149.904 173.785 150.254 173.93 150.512 174.187C150.77 174.444 150.916 174.794 150.918 175.159V182.703H160.642V87.5237C160.642 83.6977 162.159 80.0283 164.861 77.3224C167.564 74.6164 171.229 73.0954 175.051 73.0938H194.588V75.6008C194.588 78.7518 195.839 81.7738 198.065 84.0019C200.29 86.23 203.309 87.4817 206.457 87.4817H240.829V79.6371H225.006C224.394 79.6339 223.808 79.39 223.374 78.958C222.94 78.526 222.694 77.9405 222.688 77.328V76.8242C222.689 76.2092 222.934 75.6197 223.368 75.1848C223.803 74.7499 224.392 74.5048 225.006 74.5032H240.799V63.4559H172.798C166.604 63.4591 160.665 65.924 156.285 70.3088C151.906 74.6937 149.445 80.6397 149.444 86.84Z" fill="#367198"/>
<path d="M225.006 74.4852C224.392 74.4868 223.803 74.7319 223.368 75.1668C222.934 75.6017 222.689 76.1912 222.687 76.8063V77.328C222.689 77.9437 222.934 78.5337 223.368 78.9696C223.802 79.4055 224.391 79.6519 225.006 79.6551H240.799V74.5032L225.006 74.4852Z" fill="#EBEBEB"/>
<path d="M250.409 73.9934H245.616V79.3912H250.409V73.9934Z" fill="#EBEBEB"/>
<path d="M250.403 73.9935C251.679 74.2813 252.8 76.6084 252.8 76.6084V77.1121C252.8 77.1121 251.673 79.4332 250.403 79.3912V87.1879H277.478C280.626 87.1863 283.645 85.9332 285.871 83.7041C288.097 81.4751 289.347 78.4525 289.347 75.3009V72.794H309.717C313.534 72.8019 317.191 74.3251 319.887 77.0292C322.582 79.7334 324.096 83.3976 324.096 87.2179V157.094C325.973 158.595 327.489 160.5 328.53 162.668C329.571 164.835 330.112 167.209 330.112 169.614C330.112 172.019 329.571 174.393 328.53 176.56C327.489 178.728 325.973 180.632 324.096 182.134V182.535H332.484V147.336C332.484 147.313 332.489 147.29 332.498 147.268C332.507 147.247 332.52 147.227 332.537 147.211C332.554 147.195 332.574 147.182 332.596 147.174C332.617 147.166 332.641 147.162 332.664 147.162H335.48V85.6885C335.481 82.7348 334.9 79.8099 333.771 77.0808C332.642 74.3518 330.988 71.8722 328.901 69.7836C326.815 67.695 324.338 66.0384 321.611 64.9084C318.885 63.7784 315.963 63.1972 313.012 63.198H249.81V73.9935H250.403ZM259.474 73.9395C260.051 73.9395 260.615 74.1108 261.095 74.4317C261.575 74.7527 261.949 75.2088 262.17 75.7425C262.391 76.2762 262.448 76.8635 262.336 77.4301C262.223 77.9966 261.945 78.5171 261.537 78.9255C261.129 79.334 260.609 79.6122 260.043 79.7249C259.477 79.8376 258.891 79.7797 258.358 79.5587C257.824 79.3376 257.369 78.9632 257.048 78.4829C256.727 78.0026 256.556 77.4379 256.556 76.8602C256.556 76.0856 256.864 75.3427 257.411 74.7949C257.958 74.2472 258.7 73.9395 259.474 73.9395Z" fill="#367198"/>
<path d="M258.767 102.146C268.179 102.146 275.812 110.308 275.812 120.372C275.812 130.436 268.179 138.598 258.767 138.598C256.209 138.584 253.688 137.979 251.402 136.829C249.115 135.679 247.125 134.017 245.586 131.971V182.547H300.107C298.132 181.022 296.529 179.067 295.419 176.83C294.309 174.593 293.722 172.132 293.702 169.635C293.702 160.273 301.833 152.686 311.868 152.686C316.34 152.656 320.676 154.218 324.102 157.094V87.2178C324.102 83.3976 322.588 79.7333 319.893 77.0292C317.197 74.325 313.54 72.8019 309.723 72.7939H289.353V75.3009C289.353 78.4525 288.103 81.475 285.877 83.7041C283.651 85.9332 280.632 87.1863 277.484 87.1878H245.616V108.779C247.152 106.736 249.137 105.075 251.418 103.925C253.699 102.775 256.213 102.166 258.767 102.146Z" fill="#9BC9E2"/>
<path d="M250.403 79.3912C251.019 79.3919 251.611 79.1557 252.057 78.7314C252.503 78.3072 252.769 77.7274 252.8 77.1121V76.6083C252.73 75.9739 252.46 75.3782 252.029 74.9079C251.598 74.4376 251.029 74.1173 250.403 73.9934H249.804V79.3912H250.403Z" fill="#EBEBEB"/>
<path d="M259.942 79.7303C261.532 79.4718 262.613 77.9715 262.354 76.3793C262.096 74.787 260.597 73.7058 259.007 73.9642C257.416 74.2227 256.336 75.723 256.594 77.3153C256.852 78.9075 258.351 79.9888 259.942 79.7303Z" fill="#EBEBEB"/>
<path d="M331.244 309.832V408.136C331.244 414.339 328.782 420.289 324.4 424.675C320.018 429.062 314.075 431.526 307.878 431.526H244.969V421.93H305.619C309.442 421.93 313.109 420.41 315.812 417.704C318.516 414.998 320.034 411.327 320.034 407.5V309.832H331.244Z" fill="#367198"/>
<path d="M313.168 305.903C313.555 304.685 314.393 303.661 315.511 303.042C317.297 302.021 318.841 300.624 320.034 298.946V287.173C317.272 283.197 311.814 280.486 305.523 280.486C296.446 280.486 289.095 286.118 289.095 293.081C289.095 296.355 290.731 299.336 293.403 301.573C294.429 302.419 295.554 303.138 296.752 303.714L296.824 303.828C297.609 304.59 298.129 305.583 298.309 306.662C298.49 307.741 298.32 308.85 297.824 309.826H244.969V359.005C246.487 356.972 248.454 355.318 250.717 354.174C252.98 353.029 255.477 352.425 258.012 352.407C267.353 352.407 274.92 360.564 274.92 370.622C274.92 380.68 267.353 388.842 258.012 388.842C255.477 388.825 252.98 388.22 250.717 387.076C248.454 385.931 246.487 384.278 244.969 382.245V421.942H305.619C309.436 421.942 313.097 420.427 315.799 417.728C318.502 415.03 320.025 411.369 320.034 407.548V309.832H313.815C313.391 309.281 313.11 308.635 312.997 307.949C312.884 307.263 312.943 306.56 313.168 305.903Z" fill="#9BC9E2"/>
<rect x="418" y="490" width="14" height="14" fill="#252F34"/>
</g>
<defs>
<linearGradient id="paint0_linear" x1="427.39" y1="161.416" x2="427.39" y2="142.266" gradientUnits="userSpaceOnUse">
<stop stop-color="#808080" stop-opacity="0.25"/>
<stop offset="0.54" stop-color="#808080" stop-opacity="0.12"/>
<stop offset="1" stop-color="#808080" stop-opacity="0.1"/>
</linearGradient>
<linearGradient id="paint1_linear" x1="178528" y1="307811" x2="178528" y2="65608.7" gradientUnits="userSpaceOnUse">
<stop stop-color="#808080" stop-opacity="0.25"/>
<stop offset="0.54" stop-color="#808080" stop-opacity="0.12"/>
<stop offset="1" stop-color="#808080" stop-opacity="0.1"/>
</linearGradient>
<clipPath id="clip0">
<rect width="557" height="491" fill="white"/>
</clipPath>
</defs>
</svg>
