<svg width="573" height="505" viewBox="0 0 573 505" fill="none" xmlns="http://www.w3.org/2000/svg">
<path opacity="0.1" d="M177.278 19.7453C196.705 2.41803 227.202 -1.11033 254.937 0.271406C342.112 4.58933 420.801 46.7261 488.869 94.3652C513.523 111.637 537.77 130.198 553.764 153.953C586.325 202.301 576.667 269.303 531.391 309.108C515.982 322.679 497.313 333.048 478.139 342.257C444.055 358.635 407.26 371.78 368.59 375.518C341.003 378.189 313.07 376.017 285.643 372.298C209.02 361.898 133.808 338.896 70.7806 299.547C43.1316 282.275 17.0665 260.834 5.67035 232.927C-5.7258 205.021 1.57168 169.627 29.8001 153.101C41.5106 146.267 55.4399 143.182 69.1103 140.283C89.2277 136.015 109.672 131.808 127.829 123.135C146.591 114.166 168.779 96.8387 165.081 77.0133C161.075 55.7259 157.876 37.0478 177.278 19.7453Z" fill="black"/>
<path opacity="0.1" d="M464.487 477.914C504.953 477.914 537.758 472.267 537.758 465.3C537.758 458.333 504.953 452.685 464.487 452.685C424.021 452.685 391.216 458.333 391.216 465.3C391.216 472.267 424.021 477.914 464.487 477.914Z" fill="#9BC9E2"/>
<path opacity="0.1" d="M242.641 460.643C302.551 460.643 351.117 457.204 351.117 452.963C351.117 448.721 302.551 445.283 242.641 445.283C182.732 445.283 134.165 448.721 134.165 452.963C134.165 457.204 182.732 460.643 242.641 460.643Z" fill="#9BC9E2"/>
<path d="M435.766 166.018C439.205 164.47 441.75 161.861 442.619 158.517C442.724 158.112 442.803 157.7 442.853 157.284C443.007 156.899 443.139 156.505 443.248 156.105C444.117 152.75 443.162 149.277 440.893 146.31L436.388 163.582L435.766 166.018Z" fill="url(#paint0_linear)"/>
<path d="M539.767 159.535C539.064 155.408 526.047 146.47 526.047 146.47C526.047 146.47 520.297 143.386 517.252 139.821C515.304 137.551 514.694 137.575 514.509 137.884C514.383 137.803 514.239 137.754 514.09 137.742C513.967 137.655 513.85 137.575 513.739 137.483C513.757 137.309 513.719 137.133 513.632 136.981C513.545 136.83 513.412 136.709 513.252 136.638C513.104 136.551 512.956 136.44 512.808 136.335C511.822 134.676 511.471 132.326 511.354 130.278C511.206 127.693 508.272 128.341 507.267 128.631C506.577 127.336 505.905 125.991 505.27 124.646C505.551 124.21 505.784 123.744 505.967 123.258C507.779 119.317 507.384 114.795 508.173 110.625C508.74 107.609 509.924 104.457 509.689 101.521C509.689 101.453 509.689 101.379 509.689 101.305C509.689 101.305 509.689 101.336 509.689 101.348C509.625 100.612 509.457 99.8896 509.19 99.2013C508.666 97.8812 507.754 96.7339 507.341 95.3707C506.682 93.3782 507.101 91.1823 506.552 89.1652C505.868 86.6114 503.711 84.6375 501.27 83.5087C498.83 82.3799 496.111 81.9912 493.437 81.6582C486.749 80.8192 479.643 80.3196 473.541 83.1324C472.982 83.4642 472.342 83.6369 471.692 83.6321C471.09 83.4657 470.519 83.201 470.003 82.8487C468.364 82.0344 466.305 82.5526 464.838 83.6382C463.371 84.7239 462.373 86.2907 461.405 87.8081C460.438 89.3256 459.378 90.8923 457.861 91.8855C456.08 93.076 453.726 93.4769 452.314 95.0807C451.685 95.8411 451.288 96.7658 451.168 97.7455C451.168 97.7455 451.168 97.7147 451.168 97.7023C451.162 97.8195 451.162 97.9368 451.168 98.0539C451.168 98.1465 451.168 98.2452 451.168 98.3377C451.168 98.4302 451.168 98.4919 451.168 98.5659C451.168 98.8312 451.168 99.0902 451.168 99.3493C451.365 100.856 451.765 102.329 452.357 103.729C452.642 104.773 453.199 105.723 453.972 106.48C456.117 108.226 459.519 106.579 462.108 107.553C462.336 107.634 462.552 107.738 462.767 107.837C462.767 107.936 462.7 108.035 462.669 108.139C462.115 110.024 461.834 111.979 461.837 113.944C461.837 125.528 471.445 134.917 483.298 134.917C483.741 134.917 484.179 134.917 484.617 134.867C484.678 135.096 484.746 135.33 484.802 135.552C485.461 138.112 485.67 140.767 485.418 143.398L485.289 142.251C485.001 142.113 484.702 142 484.395 141.912C483.537 141.626 482.636 141.488 481.732 141.505C478.817 141.468 474.429 142.64 469.744 148.327C469.744 148.327 463.766 151.652 462.009 152.454C461.865 152.541 461.751 152.67 461.683 152.824V152.824C461.683 152.824 453.689 164.908 452.863 169.503C452.037 174.099 451.014 179.373 451.014 179.373C451.014 179.373 449.017 185.332 447.729 187.972C446.441 190.612 445.263 193.129 445.152 194.276C445.041 195.423 445.621 197.94 443.155 199.544C440.69 201.148 440.074 205.502 440.074 205.502C440.074 205.502 438.841 206.662 437.097 208.13H437.035L443.476 183.413L444.628 183.703C444.904 183.772 445.194 183.759 445.463 183.667C445.732 183.575 445.968 183.408 446.145 183.185C446.264 183.034 446.35 182.859 446.397 182.673L447.698 177.664L448.222 175.672L448.327 175.265L449.085 172.359L446.521 171.742L443.519 170.996L435.038 168.856L435.778 166.018L436.394 163.612L440.271 148.722L440.887 146.322C438.422 143.127 434.496 140.53 429.67 139.327C420.363 137.014 411.352 140.777 409.54 147.729C409.433 148.134 409.353 148.546 409.3 148.962C409.144 149.344 409.014 149.735 408.911 150.134C408.598 151.341 408.514 152.597 408.665 153.835C408.69 154.037 408.72 154.242 408.757 154.452C409.127 156.373 409.935 158.182 411.118 159.739C411.951 160.851 412.917 161.856 413.996 162.73L414.039 162.866C414.497 163.614 414.773 164.459 414.847 165.333C414.847 165.457 414.847 165.586 414.847 165.716C414.64 166.088 414.392 166.436 414.107 166.752L357.244 152.608L356.627 155.007L343.82 204.263C345.489 202.978 347.365 201.987 349.367 201.333C350.153 201.072 350.956 200.866 351.771 200.716L352.06 200.666C354.353 200.294 356.697 200.39 358.951 200.95C366.137 202.739 371.105 208.864 372.03 216.069C372.149 216.979 372.201 217.896 372.184 218.814C372.166 219.985 372.042 221.151 371.814 222.299C368.732 231.663 359.265 237.319 350.069 235.031C347.492 234.38 345.1 233.143 343.08 231.415C341.059 229.687 339.465 227.515 338.421 225.069L337.804 227.475L324.59 278.025L374.951 290.559L375.493 288.135H375.574C374.082 286.286 373.001 284.141 372.401 281.842C371.802 279.542 371.698 277.142 372.097 274.799C372.097 274.719 372.147 274.645 372.178 274.565C372.239 274.386 372.307 274.213 372.375 274.04C372.72 273.196 373.132 272.381 373.607 271.604C373.854 271.203 374.113 270.814 374.39 270.438C374.563 270.203 374.742 269.975 374.926 269.753C375.813 268.678 376.825 267.713 377.94 266.879L378.298 266.62C378.705 266.33 379.124 266.052 379.531 265.793C379.783 265.645 380.042 265.497 380.301 265.361C383.284 263.784 386.617 262.988 389.99 263.048C391.611 263.07 393.224 263.277 394.797 263.665C399.656 264.833 403.9 267.785 406.687 271.937C407.055 272.493 407.393 273.07 407.697 273.664C408.605 275.426 409.195 277.335 409.442 279.302C409.634 280.872 409.593 282.463 409.318 284.021C408.12 287.471 405.831 290.435 402.797 292.465L402.181 294.785H402.249L402.156 294.853L401.54 297.166L413.041 300.028L429.331 237.696C433.725 237.184 435.975 235.228 435.975 234.945C435.975 234.661 441.257 231.731 444.185 230.929C445.639 230.534 447.322 230.25 448.659 229.967C447.081 237.807 445.578 245.388 445.713 245.832C445.756 246.005 446.04 245.733 446.471 245.141C446.429 245.369 446.41 245.6 446.416 245.832C446.416 245.949 446.582 245.863 446.798 245.622L446.767 245.77C446.767 245.77 437.621 263.48 436.906 265.509C436.191 267.539 437.078 272.733 439.895 274.454C440.441 274.799 440.928 275.23 441.337 275.73L441.004 276.39C439.957 278.519 439.026 280.887 439.192 282.362C439.413 284.227 438.977 286.112 437.96 287.691C437.96 287.691 430.04 312.186 430.218 319.237C430.397 326.287 427.402 341.758 427.402 341.758C427.402 341.758 424.147 351.726 426.083 354.563C428.018 357.401 430.218 369.781 430.218 369.781C430.218 369.781 431.716 372.619 431.624 375.024C431.531 377.43 433.035 381.81 433.035 381.81L437.966 399.599C437.966 399.599 437.436 404.331 439.285 407.68C441.134 411.03 440.955 409.999 440.074 415.847C439.192 421.695 441.134 427.105 444.296 428.801C445.528 429.467 445.59 430.485 445.208 431.478C444.4 431.163 443.729 432.835 443.328 434.186L442.921 434.575L443.192 434.642C443.02 435.259 442.921 435.777 442.921 435.777C442.921 435.777 434.656 442.655 434.126 445.147C433.596 447.639 427.79 448.929 427.79 448.929C427.79 448.929 418.995 451.334 416.696 452.537C416.038 452.837 415.469 453.301 415.043 453.886C414.618 454.471 414.35 455.156 414.267 455.874C414.164 457.007 414.273 458.149 414.588 459.242C415.463 462.764 427.778 463.11 433.695 462.166C439.611 461.222 451.809 457.78 451.809 457.78C451.809 457.78 464.653 456.547 468.45 455.029C472.247 453.512 469.239 449.527 469.239 449.527C469.239 449.527 469.239 449.397 469.239 449.157C469.331 447.72 469.596 442.507 468.684 441.138C468 440.077 468.019 437.437 468.117 435.759C470.687 431.133 465.171 417.254 465.171 417.254C465.171 417.254 466.225 403.683 465.522 401.697C464.82 399.71 461.824 382.871 461.824 382.871C461.824 382.871 459.975 375.222 460.684 373.932C461.393 372.643 460.24 368.942 460.24 368.942C460.24 368.942 457.226 364.828 457.498 363.532C457.769 362.237 456.616 359.924 456.616 359.924C456.616 359.924 465.59 346.514 464.795 344.022C464 341.529 465.153 337.489 465.153 337.489C465.153 337.489 466.281 335.589 467.618 333.313C469.282 330.525 471.316 327.188 471.982 326.145C472.845 324.819 474.922 319.175 476.08 315.924C476.573 314.542 476.906 313.592 476.906 313.592C476.906 313.592 478.312 338.883 479.544 341.443C480.777 344.003 482.626 364.396 482.626 364.396C483.31 366.206 483.61 368.139 483.507 370.071C483.335 373.248 486.324 387.09 486.324 387.09C486.324 387.09 487.643 396.885 486.762 399.464C485.88 402.042 486.589 421.053 486.589 421.053C486.589 421.053 481.751 424.754 480.518 427.586C479.285 430.417 480.691 438.158 480.691 438.158L481.258 438.424C480.804 439.499 480.467 440.62 480.253 441.767C480.08 443.402 477.436 450.798 477.701 451.828C477.966 452.858 476.561 456.041 476.382 457.669C476.204 459.298 474.009 461.71 473.831 462.573C473.553 463.346 473.229 464.102 472.863 464.837C472.385 465.966 472.003 467.134 471.723 468.328C470.841 471.943 481.307 472.542 481.307 472.542C496.789 475.379 499.606 463.776 499.606 463.776C499.606 463.776 501.541 453.462 502.244 452.673C502.33 452.526 502.385 452.364 502.405 452.195C502.425 452.026 502.41 451.855 502.361 451.692C501.959 449.937 501.2 448.285 500.13 446.838C499.637 446.264 499.606 444.79 499.686 443.47C500.134 443.426 500.578 443.343 501.011 443.223C507.255 441.422 504.709 431.015 504.709 431.015C504.709 431.015 508.931 424.144 508.931 421.479C508.931 418.814 510.429 410.647 510.429 410.647C515.797 401.018 513.683 377.64 514.565 375.746C515.446 373.852 512.716 366.808 510.515 363.625C508.315 360.442 509.196 351.849 510.515 349.357C511.834 346.865 509.196 338.254 509.196 338.254C509.196 338.254 511.748 321.599 511.662 318.996C511.575 316.393 513.862 308.769 513.862 308.769C513.862 308.769 516.149 304.815 515.619 303.612C515.089 302.409 517.375 299.294 516.765 297.937C516.155 296.58 517.289 292.348 518.435 289.856C519.021 288.579 519.748 285.063 520.284 281.936C520.346 281.59 520.408 281.245 520.463 280.906C523.027 282.528 525.394 283.737 526.232 283.41C527.804 282.793 525.301 274.774 523.588 269.778C523.884 269.556 524.007 269.389 523.884 269.315C522.83 268.624 524.001 265.528 524.001 265.528C530.22 261.864 528.106 259.113 526.115 257.509C524.124 255.905 525.412 251.34 524.821 249.49C524.229 247.639 525.529 239.293 526.583 233.217C526.802 231.897 526.791 230.549 526.553 229.233C527.68 227.512 528.845 225.71 529.868 224.045C533.382 218.314 540.889 191.037 540.889 191.037L540.839 190.896C541.573 189.446 542.121 188.268 542.417 187.484C544.691 181.563 540.469 163.674 539.767 159.535ZM485.11 143.83L485.27 143.756C485.27 143.799 485.27 143.842 485.27 143.886L485.11 143.83ZM450.983 436.431C450.6 436.434 450.22 436.358 449.867 436.209L450.983 436.431Z" fill="url(#paint1_linear)"/>
<path d="M385.823 237.628C390.896 239.552 402.686 239.762 407.925 239.762C409.516 239.762 410.502 239.762 410.502 239.762L413.861 232.915L410.502 227.209C410.502 227.209 407.42 226.358 403.327 225.618C397.287 224.532 389.022 223.681 385.084 226.124C378.477 230.213 379.216 235.117 385.823 237.628Z" fill="#FEC2BE"/>
<path opacity="0.1" d="M407.919 239.762C409.509 239.762 410.496 239.762 410.496 239.762L413.855 232.915L410.502 227.209C410.502 227.209 407.42 226.358 403.327 225.618C406.65 228.061 414.637 233.378 407.919 239.762Z" fill="#2E5F7A"/>
<path d="M463.556 155.729L462.077 154.014C462.077 154.014 454.441 166.104 453.639 170.669C452.838 175.234 451.79 180.477 451.79 180.477C451.79 180.477 449.855 186.411 448.598 189.033C447.34 191.654 446.206 194.165 446.095 195.306C445.984 196.447 446.551 198.958 444.154 200.555C441.756 202.153 441.195 206.489 441.195 206.489C441.195 206.489 432.53 214.928 427.969 215.125C423.408 215.323 410.304 217.636 410.761 219.918C411.217 222.2 405.294 223.564 402.896 224.137C400.498 224.711 418.305 231.54 407.913 240.336C407.913 240.336 414.52 241.705 415.204 243.297C415.889 244.888 422.841 242.39 422.841 242.39C422.841 242.39 424.326 238.849 429.454 238.621C434.582 238.393 437.202 236.11 437.202 235.771C437.202 235.432 442.33 232.576 445.214 231.78C448.098 230.984 451.821 230.639 451.938 229.837C452.055 229.035 469.036 155.698 469.036 155.698L463.556 155.729Z" fill="#293F60"/>
<path opacity="0.05" d="M463.556 155.729L462.077 154.014C462.077 154.014 454.441 166.104 453.639 170.669C452.838 175.234 451.79 180.477 451.79 180.477C451.79 180.477 449.855 186.411 448.598 189.033C447.34 191.654 446.206 194.165 446.095 195.306C445.984 196.447 446.551 198.958 444.154 200.555C441.756 202.153 441.195 206.489 441.195 206.489C441.195 206.489 432.53 214.928 427.969 215.125C423.408 215.323 410.304 217.636 410.761 219.918C411.217 222.2 405.294 223.564 402.896 224.137C400.498 224.711 418.305 231.54 407.913 240.336C407.913 240.336 414.52 241.705 415.204 243.297C415.889 244.888 422.841 242.39 422.841 242.39C422.841 242.39 424.326 238.849 429.454 238.621C434.582 238.393 437.202 236.11 437.202 235.771C437.202 235.432 442.33 232.576 445.214 231.78C448.098 230.984 451.821 230.639 451.938 229.837C452.055 229.035 469.036 155.698 469.036 155.698L463.556 155.729Z" fill="#2E5F7A"/>
<path d="M481.307 472.264C496.352 475.089 499.088 463.536 499.088 463.536C499.088 463.536 500.968 453.271 501.652 452.5C501.738 452.354 501.792 452.193 501.812 452.025C501.832 451.857 501.818 451.687 501.77 451.526C501.375 449.785 500.637 448.141 499.6 446.69C498.663 445.579 499.427 440.959 499.427 440.959L481.991 436.512C481.991 436.512 480.45 440.015 480.284 441.644C480.117 443.272 477.547 450.625 477.818 451.655C478.09 452.685 476.709 455.843 476.537 457.472C476.364 459.1 474.231 461.494 474.071 462.345C473.803 463.116 473.488 463.87 473.128 464.603C472.665 465.729 472.294 466.89 472.019 468.076C471.137 471.666 481.307 472.264 481.307 472.264Z" fill="#58514B"/>
<path opacity="0.1" d="M481.307 472.264C496.352 475.089 499.088 463.536 499.088 463.536C499.088 463.536 500.968 453.271 501.652 452.5C501.738 452.354 501.792 452.193 501.812 452.025C501.832 451.857 501.818 451.687 501.77 451.526L498.145 461.913C498.145 461.913 495.156 468.156 484.044 467.218C477.72 466.682 474.607 465.51 473.097 464.597C472.635 465.722 472.264 466.884 471.988 468.069C471.137 471.666 481.307 472.264 481.307 472.264Z" fill="#2E5F7A"/>
<path opacity="0.1" d="M493.017 456.01C493.017 456.01 489.258 456.096 488.999 453.018L493.017 456.01Z" fill="#2E5F7A"/>
<path d="M376.061 288.111L378.446 288.721L377.922 291.145L375.709 290.584L376.061 288.111Z" fill="#9BC9E2"/>
<path opacity="0.1" d="M376.061 288.111L378.446 288.721L377.922 291.145L375.709 290.584L376.061 288.111Z" fill="#2E5F7A"/>
<path d="M446.851 175.24L446.115 178.133L448.606 178.768L449.341 175.874L446.851 175.24Z" fill="#367198"/>
<path d="M435.669 172.388L434.933 175.282L443.194 177.386L443.929 174.493L435.669 172.388Z" fill="#367198"/>
<path d="M443.925 174.499L443.189 177.393L446.11 178.137L446.846 175.243L443.925 174.499Z" fill="#367198"/>
<path d="M435.796 172.014C435.599 172.106 435.408 172.205 435.217 172.285L435.698 172.409L434.958 175.302L431.303 174.37C431.026 173.714 430.915 173 430.981 172.29C431.046 171.581 431.286 170.899 431.679 170.305C432.375 169.181 433.48 168.372 434.761 168.048C435.544 167.822 436.308 167.538 437.048 167.196L435.796 172.014Z" fill="#9BC9E2"/>
<path d="M444.518 184.505L445.633 184.795C445.813 184.841 446.001 184.851 446.185 184.825C446.369 184.798 446.546 184.736 446.706 184.641C446.865 184.545 447.005 184.42 447.116 184.27C447.227 184.121 447.307 183.951 447.353 183.771L448.598 178.787L446.132 178.17L444.518 184.505Z" fill="#367198"/>
<path d="M443.667 159.732C442.816 163.063 440.345 165.66 437.004 167.196L441.38 149.986C443.599 152.941 444.53 156.401 443.667 159.732Z" fill="#367198"/>
<path d="M442.964 184.11C442.603 184.017 442.293 183.784 442.102 183.463C441.911 183.142 441.856 182.758 441.947 182.395L443.217 177.405L434.958 175.302L409.768 274.33C411.6 277.898 412.065 282.014 411.076 285.901C410.088 289.789 407.713 293.181 404.4 295.439L403.814 297.746L414.989 300.614L444.518 184.53L442.964 184.11Z" fill="#367198"/>
<path d="M441.947 182.395C441.856 182.758 441.911 183.142 442.102 183.463C442.293 183.784 442.603 184.017 442.964 184.11L444.518 184.505L446.132 178.151L443.217 177.405L441.947 182.395Z" fill="#367198"/>
<path d="M431.673 170.305C432.373 169.185 433.476 168.377 434.755 168.048C435.535 167.821 436.297 167.536 437.035 167.196L441.417 149.986C438.674 146.499 434.831 144.046 430.514 143.028C421.473 140.721 412.708 144.465 410.952 151.386C410.12 154.65 410.995 158.036 413.096 160.948C413.901 162.052 414.839 163.052 415.888 163.927L415.932 164.063C416.526 165.024 416.795 166.151 416.699 167.278C416.604 168.404 416.149 169.47 415.402 170.318L360.14 156.235L347.672 205.262C349.694 203.623 352.067 202.473 354.606 201.901C357.145 201.33 359.781 201.353 362.31 201.968C371.623 204.343 377.102 214.397 374.551 224.421C371.999 234.445 362.409 240.657 353.096 238.313C350.572 237.647 348.237 236.406 346.272 234.686C344.308 232.966 342.768 230.815 341.773 228.4L328.972 278.71L377.922 291.176C376.334 289.159 375.227 286.806 374.684 284.297C374.142 281.787 374.178 279.186 374.791 276.693C377.164 267.378 387.204 261.888 397.226 264.442C399.901 265.098 402.405 266.319 404.568 268.025C406.732 269.731 408.505 271.881 409.768 274.33L434.958 175.302L431.34 174.37C431.057 173.718 430.939 173.005 430.997 172.296C431.055 171.587 431.287 170.903 431.673 170.305V170.305Z" fill="#9BC9E2"/>
<path d="M435.692 172.409L435.796 172.014C435.605 172.106 435.414 172.205 435.217 172.291L435.692 172.409Z" fill="#9BC9E2"/>
<g opacity="0.1">
<path opacity="0.1" d="M446.866 175.258L443.951 174.512L435.698 172.409L435.802 172.014L437.035 167.196C436.296 167.538 435.531 167.822 434.749 168.048C433.468 168.372 432.363 169.181 431.667 170.305C431.486 170.616 431.333 170.942 431.211 171.28C431.331 170.942 431.482 170.616 431.661 170.305C432.361 169.185 433.464 168.377 434.742 168.048C435.523 167.821 436.285 167.536 437.023 167.196L441.405 149.986C438.662 146.499 434.818 144.046 430.502 143.028C421.46 140.721 412.696 144.465 410.939 151.386C410.107 154.65 410.982 158.036 413.084 160.948C413.889 162.052 414.827 163.052 415.876 163.927L415.919 164.063C416.513 165.024 416.782 166.151 416.687 167.278C416.591 168.404 416.136 169.47 415.389 170.318L360.128 156.235L347.66 205.262C349.683 203.621 352.058 202.47 354.599 201.898C357.141 201.327 359.779 201.351 362.31 201.968C371.623 204.343 377.102 214.397 374.551 224.421C371.999 234.445 362.409 240.657 353.096 238.313C350.572 237.647 348.237 236.406 346.272 234.686C344.308 232.966 342.768 230.815 341.773 228.4L328.972 278.71L377.922 291.176C376.334 289.159 375.227 286.806 374.684 284.297C374.142 281.787 374.178 279.186 374.791 276.693C377.164 267.378 387.204 261.888 397.226 264.442C399.901 265.098 402.405 266.319 404.568 268.025C406.732 269.731 408.505 271.881 409.768 274.33C411.6 277.898 412.065 282.014 411.076 285.901C410.088 289.789 407.713 293.181 404.4 295.439L403.814 297.746L414.989 300.614L444.518 184.53L445.633 184.82C445.813 184.866 446.001 184.876 446.185 184.85C446.369 184.823 446.546 184.76 446.706 184.665C446.865 184.57 447.005 184.444 447.116 184.295C447.227 184.146 447.307 183.976 447.353 183.796L448.598 178.787L449.331 175.894L446.866 175.258ZM435.5 172.174C435.408 172.217 435.316 172.267 435.223 172.304L435.5 172.174ZM431.309 174.389L434.964 175.32L431.309 174.389Z" fill="#2E5F7A"/>
<path opacity="0.1" d="M443.667 159.732C444.511 156.401 443.581 152.947 441.38 149.986L437.004 167.196C440.363 165.66 442.835 163.057 443.667 159.732Z" fill="#2E5F7A"/>
</g>
<path d="M447.456 172.855L446.72 175.748L449.211 176.383L449.947 173.489L447.456 172.855Z" fill="#367198"/>
<path d="M436.274 170.003L435.538 172.896L443.799 175.001L444.534 172.107L436.274 170.003Z" fill="#367198"/>
<path d="M444.531 172.102L443.796 174.995L446.716 175.739L447.452 172.846L444.531 172.102Z" fill="#367198"/>
<path d="M436.406 169.62L435.827 169.898L436.302 170.015L435.568 172.927L431.913 171.995C431.632 171.341 431.518 170.626 431.583 169.916C431.648 169.206 431.888 168.524 432.283 167.93C432.982 166.809 434.086 166 435.365 165.673C436.146 165.447 436.908 165.163 437.645 164.821L436.406 169.62Z" fill="#9BC9E2"/>
<path d="M445.122 182.118L446.243 182.402C446.425 182.451 446.614 182.463 446.8 182.438C446.986 182.413 447.166 182.351 447.327 182.255C447.489 182.16 447.631 182.033 447.743 181.882C447.855 181.732 447.936 181.56 447.981 181.378L449.251 176.393L446.786 175.777L445.122 182.118Z" fill="#367198"/>
<path d="M444.283 157.345C443.439 160.67 440.967 163.267 437.621 164.803L442.003 147.593C444.209 150.548 445.14 154.008 444.283 157.345Z" fill="#367198"/>
<path d="M443.575 181.723C443.395 181.677 443.226 181.596 443.077 181.484C442.929 181.373 442.804 181.233 442.709 181.074C442.615 180.914 442.553 180.737 442.527 180.553C442.501 180.369 442.511 180.182 442.558 180.002L443.79 175.018L435.568 172.927L410.385 271.943C412.22 275.51 412.687 279.625 411.698 283.513C410.709 287.401 408.332 290.791 405.016 293.045L404.431 295.352L415.611 298.202L445.134 182.118L443.575 181.723Z" fill="#367198"/>
<path d="M442.558 180.002C442.511 180.182 442.501 180.369 442.527 180.553C442.553 180.737 442.615 180.914 442.709 181.074C442.804 181.233 442.929 181.373 443.077 181.484C443.226 181.596 443.395 181.677 443.575 181.723L445.122 182.118L446.749 175.758L443.827 175.018L442.558 180.002Z" fill="#367198"/>
<path d="M432.283 167.912C432.982 166.79 434.086 165.982 435.365 165.654C436.146 165.429 436.908 165.144 437.645 164.803L442.021 147.593C439.28 144.106 435.439 141.653 431.124 140.635C422.077 138.334 413.318 142.072 411.556 148.999C410.73 152.256 411.599 155.643 413.707 158.554C414.512 159.66 415.449 160.663 416.499 161.54L416.542 161.669C417.134 162.631 417.402 163.758 417.306 164.884C417.211 166.01 416.757 167.076 416.012 167.924L360.744 153.848L348.257 202.869C350.283 201.225 352.662 200.073 355.207 199.502C357.751 198.932 360.394 198.959 362.926 199.581C372.233 201.949 377.718 212.004 375.167 222.034C372.615 232.064 363.019 238.263 353.681 235.894C351.161 235.224 348.829 233.981 346.869 232.26C344.908 230.539 343.371 228.389 342.377 225.976L329.582 276.286L378.526 288.758C376.939 286.741 375.833 284.387 375.292 281.878C374.75 279.368 374.788 276.768 375.401 274.275C377.768 264.954 387.814 259.47 397.836 262.024C400.516 262.68 403.024 263.905 405.189 265.616C407.354 267.328 409.126 269.485 410.385 271.943L435.568 172.927L431.913 171.995C431.632 171.337 431.519 170.62 431.583 169.907C431.648 169.194 431.888 168.508 432.283 167.912Z" fill="#9BC9E2"/>
<path d="M436.302 170.021L436.4 169.62C436.209 169.713 436.018 169.812 435.827 169.898L436.302 170.021Z" fill="#9BC9E2"/>
<path d="M427.642 354.897C429.491 357.716 431.661 370.04 431.661 370.04C431.661 370.04 433.115 372.859 433.029 375.259C432.943 377.658 434.397 382.044 434.397 382.044L439.186 399.754C439.186 399.754 438.668 404.46 440.468 407.773C442.268 411.085 442.089 410.08 441.239 415.897C440.388 421.713 442.262 427.105 445.337 428.85C448.413 430.596 443.969 434.581 443.969 434.581C443.969 434.581 463.63 439.886 467.735 436.635C471.84 433.384 465.596 417.297 465.596 417.297C465.596 417.297 466.626 403.782 465.942 401.814C465.257 399.846 462.348 383.08 462.348 383.08C462.348 383.08 460.555 375.462 461.239 374.179C461.923 372.896 460.814 369.244 460.814 369.244C460.814 369.244 457.904 365.136 458.163 363.853C458.422 362.57 457.307 360.263 457.307 360.263C457.307 360.263 466.009 346.878 465.239 344.367C464.469 341.856 465.578 337.865 465.578 337.865L468.006 333.708C469.627 330.932 471.587 327.607 472.247 326.571C473.085 325.251 475.107 319.638 476.234 316.399L477.036 314.08C477.036 314.08 478.404 339.235 479.6 341.801C480.795 344.367 482.589 364.624 482.589 364.624C483.254 366.428 483.545 368.348 483.446 370.268C483.273 373.433 486.182 387.207 486.182 387.207C486.182 387.207 487.464 396.959 486.607 399.544C485.751 402.129 486.435 421.023 486.435 421.023C486.435 421.023 481.732 424.724 480.537 427.524C479.341 430.325 480.709 438.01 480.709 438.01C480.709 438.01 494.386 444.857 500.432 443.062C506.478 441.267 504.019 430.911 504.019 430.911C504.019 430.911 508.124 424.07 508.124 421.417C508.124 418.765 509.615 410.666 509.615 410.666C514.83 401.086 512.777 377.819 513.634 375.937C514.491 374.056 511.834 367.036 509.702 363.872C507.569 360.707 508.42 352.152 509.702 349.684C510.984 347.217 508.383 338.636 508.383 338.636C508.383 338.636 510.848 322.037 510.774 319.471C510.7 316.905 512.913 309.293 512.913 309.293C512.913 309.293 515.132 305.358 514.62 304.155C514.109 302.952 516.327 299.88 515.73 298.511C515.132 297.141 516.247 292.959 517.357 290.492C517.924 289.221 518.633 285.717 519.206 282.614C519.73 279.66 520.118 277.063 520.118 277.063L506.01 265.682L470.792 256.429L457.547 252.155L444.635 272.511C443.722 273.995 442.885 275.525 442.126 277.094C441.109 279.209 440.203 281.566 440.363 283.034C440.579 284.887 440.157 286.758 439.168 288.339C439.168 288.339 431.47 312.717 431.642 319.736C431.815 326.756 428.906 342.146 428.906 342.146C428.906 342.146 425.744 352.065 427.642 354.897Z" fill="#000A1E"/>
<path d="M479.698 156.58C480.241 156.358 517.425 140.986 512.303 137.933C509.264 136.12 505.523 128.434 502.959 122.419C501.172 118.219 499.957 114.832 499.957 114.832C499.957 114.832 470.114 109.527 480.795 127.835C482.479 130.644 483.747 133.681 484.561 136.854C487.606 149.326 479.945 156.352 479.698 156.58Z" fill="#FEC2BE"/>
<path opacity="0.1" d="M480.795 127.835C482.479 130.644 483.747 133.681 484.561 136.854C488.348 136.59 491.99 135.296 495.095 133.112C498.201 130.928 500.651 127.937 502.182 124.461C502.479 123.795 502.738 123.114 502.959 122.419C501.172 118.219 499.957 114.832 499.957 114.832C499.957 114.832 470.114 109.527 480.795 127.835Z" fill="#2E5F7A"/>
<path d="M462.244 115.344C462.245 120.625 464.248 125.71 467.848 129.571C471.447 133.433 476.376 135.785 481.64 136.154C486.904 136.522 492.112 134.879 496.214 131.556C500.315 128.233 503.005 123.477 503.741 118.248C504.477 113.018 503.205 107.704 500.18 103.376C497.156 99.0481 492.604 96.0292 487.443 94.9276C482.282 93.8261 476.896 94.724 472.37 97.4403C467.845 100.157 464.517 104.489 463.057 109.564C462.517 111.443 462.243 113.389 462.244 115.344V115.344Z" fill="#FEC2BE"/>
<path opacity="0.1" d="M442.126 277.088C444.308 279.074 445.146 282.855 445.146 282.855C445.146 282.855 455.408 289.869 454.724 285.421C454.04 280.974 460.025 263.005 460.025 263.005L459.341 287.475C459.341 287.475 492.161 285.933 494.558 283.54C496.956 281.146 510.971 276.557 510.971 276.557C510.971 276.557 515.286 280.005 519.206 282.621C519.73 279.666 520.118 277.069 520.118 277.069L506.01 265.688L470.792 256.435L457.547 252.161L444.635 272.517C443.722 273.997 442.885 275.523 442.126 277.088V277.088Z" fill="#2E5F7A"/>
<path d="M441.048 275.157C443.784 276.865 444.807 281.486 444.807 281.486C444.807 281.486 455.063 288.499 454.379 284.052C453.695 279.604 459.68 261.636 459.68 261.636L458.995 286.106C458.995 286.106 491.822 284.576 494.207 282.17C496.592 279.765 510.62 275.157 510.62 275.157C510.62 275.157 522.762 284.909 524.981 284.052C527.2 283.194 521.049 266.601 521.049 266.601L514.731 169.417C514.731 169.417 516.438 140.499 513.874 139.469C513.479 139.309 513.114 139.081 512.796 138.797C511.107 137.279 510.602 134.195 510.454 131.604C510.287 128.52 506.182 130.062 506.182 130.062L508.574 133.146L487.39 146.038L487.205 146.149C486.381 145.715 485.531 145.329 484.66 144.996C482.811 144.274 480.29 143.596 478.657 144.268C477.744 144.733 476.97 145.431 476.413 146.291C475.205 148.109 474.235 150.074 473.529 152.139L465.855 165.136C465.855 165.136 461.923 182.408 461.923 183.105C461.923 183.802 460.727 199.531 459.359 201.24C457.991 202.949 456.622 211.504 457.134 214.07C457.646 216.637 456.277 226.222 456.277 226.222C450.638 230.843 447.735 246.578 447.735 246.578C447.735 246.578 438.823 264.22 438.12 266.256C437.417 268.291 438.311 273.473 441.048 275.157Z" fill="white"/>
<path opacity="0.1" d="M487.39 146.717C489.467 149.801 495.47 154.119 495.47 154.119L512.796 139.469C511.107 137.952 510.602 134.867 510.454 132.27C510.287 129.186 506.183 130.734 506.183 130.734L506.682 131.351C506.92 131.659 507.09 132.013 507.182 132.391C507.274 132.769 507.285 133.162 507.215 133.545C507.144 133.927 506.994 134.291 506.774 134.611C506.553 134.931 506.268 135.202 505.936 135.404L487.39 146.717Z" fill="#2E5F7A"/>
<path d="M487.39 146.032C489.467 149.117 495.47 153.434 495.47 153.434L512.796 138.784C511.107 137.267 510.602 134.183 510.454 131.592C510.287 128.508 506.183 130.05 506.183 130.05L506.682 130.667C506.92 130.974 507.09 131.327 507.182 131.705C507.274 132.082 507.285 132.475 507.214 132.857C507.144 133.239 506.994 133.602 506.773 133.922C506.553 134.242 506.268 134.511 505.936 134.713L487.39 146.032Z" fill="white"/>
<path opacity="0.1" d="M479.378 148.339C481.615 151.016 484.789 154.057 484.641 152.534C484.493 151.01 486.534 147.648 487.834 146.143C485.803 145.499 483.614 145.56 481.621 146.316C480.707 146.779 479.932 147.477 479.378 148.339V148.339Z" fill="#2E5F7A"/>
<path d="M479.039 147.309C481.276 149.992 484.444 153.027 484.296 151.51C484.148 149.992 485.979 147.519 487.279 146.014C485.43 145.292 482.916 144.614 481.276 145.292C480.364 145.753 479.592 146.449 479.039 147.309Z" fill="white"/>
<path d="M484.641 161.546C485.397 161.546 486.01 160.933 486.01 160.177C486.01 159.42 485.397 158.807 484.641 158.807C483.886 158.807 483.273 159.42 483.273 160.177C483.273 160.933 483.886 161.546 484.641 161.546Z" fill="#FF718D"/>
<path d="M474.268 198.501C475.024 198.501 475.637 197.888 475.637 197.132C475.637 196.376 475.024 195.762 474.268 195.762C473.513 195.762 472.9 196.376 472.9 197.132C472.9 197.888 473.513 198.501 474.268 198.501Z" fill="#FF718D"/>
<path d="M462.533 235.919C463.289 235.919 463.901 235.306 463.901 234.55C463.901 233.793 463.289 233.18 462.533 233.18C461.778 233.18 461.165 233.793 461.165 234.55C461.165 235.306 461.778 235.919 462.533 235.919Z" fill="#FF718D"/>
<path d="M462.188 276.637C462.944 276.637 463.556 276.024 463.556 275.268C463.556 274.512 462.944 273.898 462.188 273.898C461.432 273.898 460.82 274.512 460.82 275.268C460.82 276.024 461.432 276.637 462.188 276.637Z" fill="#FF718D"/>
<path d="M478.601 178.997C479.357 178.997 479.969 178.383 479.969 177.627C479.969 176.871 479.357 176.258 478.601 176.258C477.846 176.258 477.233 176.871 477.233 177.627C477.233 178.383 477.846 178.997 478.601 178.997Z" fill="#FF718D"/>
<path d="M469.368 216.982C470.124 216.982 470.737 216.369 470.737 215.613C470.737 214.856 470.124 214.243 469.368 214.243C468.613 214.243 468 214.856 468 215.613C468 216.369 468.613 216.982 469.368 216.982Z" fill="#FF718D"/>
<path d="M460.364 254.283C461.119 254.283 461.732 253.67 461.732 252.913C461.732 252.157 461.119 251.544 460.364 251.544C459.608 251.544 458.995 252.157 458.995 252.913C458.995 253.67 459.608 254.283 460.364 254.283Z" fill="#FF718D"/>
<path d="M462.416 281.202C463.172 281.202 463.784 280.589 463.784 279.832C463.784 279.076 463.172 278.463 462.416 278.463C461.66 278.463 461.048 279.076 461.048 279.832C461.048 280.589 461.66 281.202 462.416 281.202Z" fill="#FF718D"/>
<path opacity="0.1" d="M512.796 139.617C512.796 139.617 512.568 137.563 515.526 141.104C518.485 144.644 524.075 147.716 524.075 147.716C524.075 147.716 536.728 156.617 537.412 160.719C538.097 164.821 542.195 182.624 540.032 188.551C537.868 194.479 521.326 222.891 521.326 222.891C521.326 222.891 525.64 228.03 524.636 234.075C523.631 240.12 522.355 248.447 522.922 250.273C523.489 252.099 522.238 256.658 524.155 258.255C526.072 259.853 528.143 262.573 522.103 266.237C522.103 266.237 520.962 269.321 521.985 270.006C523.009 270.691 506.83 277.76 500.414 273.997C493.997 270.234 482.54 240.12 482.293 233.39C482.047 226.66 485.825 204.398 487.877 199.167C489.93 193.937 496.087 173.5 498.706 168.942C501.326 164.383 512.796 139.617 512.796 139.617Z" fill="#2E5F7A"/>
<path d="M513.474 139.617C513.474 139.617 513.246 137.563 516.21 141.104C519.175 144.644 524.759 147.716 524.759 147.716C524.759 147.716 537.412 156.617 538.097 160.719C538.781 164.821 542.879 182.624 540.716 188.551C538.553 194.479 522.022 222.891 522.022 222.891C522.022 222.891 526.337 228.03 525.332 234.075C524.328 240.12 523.052 248.447 523.619 250.273C524.186 252.099 522.935 256.658 524.851 258.255C526.768 259.853 528.839 262.573 522.799 266.237C522.799 266.237 521.659 269.321 522.682 270.006C523.705 270.691 507.526 277.76 501.11 273.997C494.694 270.234 483.236 240.12 482.99 233.39C482.743 226.66 486.521 204.398 488.574 199.167C490.626 193.937 496.783 173.5 499.403 168.942C502.022 164.383 513.474 139.617 513.474 139.617Z" fill="#293F60"/>
<path opacity="0.1" d="M518.035 159.035C518.035 159.035 508.235 169.873 508.574 177.06C508.574 177.06 508.463 165.42 518.035 159.035Z" fill="#2E5F7A"/>
<path opacity="0.1" d="M504.475 176.831C504.475 177.171 497.862 201.808 498.207 204.892C498.552 207.976 496.266 217.093 496.266 217.093L493.184 216.297C493.184 216.297 495.575 203.633 496.031 198.958C496.487 194.282 504.475 176.831 504.475 176.831Z" fill="#2E5F7A"/>
<path opacity="0.1" d="M501.85 247.096C502.078 247.436 517.468 264.886 513.135 266.145C508.802 267.403 501.85 247.096 501.85 247.096Z" fill="#2E5F7A"/>
<path opacity="0.1" d="M514.503 242.63C514.842 242.859 520.667 255.177 521.338 251.883C522.01 248.589 516.327 260.895 515.415 251.772L514.503 242.63Z" fill="#2E5F7A"/>
<path opacity="0.1" d="M484.962 143.522C484.962 143.522 478.607 139.642 470.626 149.567C470.626 149.567 464.814 152.873 463.106 153.675C461.399 154.477 459.458 175.69 459.458 175.69C459.458 175.69 455.698 184.813 456.721 190.063C457.744 195.312 453.763 213.33 453.763 213.33C453.763 213.33 447.143 245.715 447.365 246.64C447.587 247.565 454.089 236.487 453.978 231.009C453.867 225.531 459.445 208.426 460.247 207.396C461.048 206.366 466.515 177.06 466.515 177.06C466.515 177.06 470.959 164.624 473.806 160.516C476.654 156.408 480.191 148.654 481.671 147.284C482.735 146.362 483.924 145.594 485.202 145.002L484.962 143.522Z" fill="#2E5F7A"/>
<path d="M485.042 143.522C485.042 143.522 477.917 139.642 469.942 149.567C469.942 149.567 464.123 152.873 462.416 153.675C460.709 154.477 458.767 175.69 458.767 175.69C458.767 175.69 455.008 184.813 456.031 190.063C457.054 195.312 453.072 213.33 453.072 213.33C453.072 213.33 446.459 245.727 446.687 246.64C446.915 247.553 453.411 236.487 453.3 231.009C453.189 225.531 458.767 208.426 459.569 207.396C460.37 206.366 465.855 177.06 465.855 177.06C465.855 177.06 470.299 164.624 473.147 160.516C475.994 156.408 479.532 148.654 481.011 147.284C482.49 145.915 485.227 145.002 485.227 145.002L485.042 143.522Z" fill="#293F60"/>
<path d="M453.756 214.811C453.756 214.811 440.197 205.916 433.639 210.308C427.081 214.7 416.382 220.917 426.915 225.42C437.448 229.923 452.043 229.06 452.043 229.06L453.756 214.811Z" fill="#FEC2BE"/>
<path opacity="0.1" d="M463.187 300.651C465.208 304.969 466.885 326.793 468.006 333.708C469.627 330.932 471.587 327.607 472.247 326.571C473.085 325.251 475.107 319.638 476.234 316.399C474.946 313.266 471.39 304.284 471.39 300.978C471.39 296.956 464.894 291.91 464.894 291.91C464.894 291.91 460.795 295.519 463.187 300.651Z" fill="#2E5F7A"/>
<path opacity="0.1" d="M506.78 367.634C506.78 367.634 491.735 361.219 487.292 365.784C482.848 370.349 506.78 367.634 506.78 367.634Z" fill="#2E5F7A"/>
<path opacity="0.1" d="M498.318 370.201C498.318 370.201 513.535 378.756 508.321 380.187C503.107 381.618 498.318 370.201 498.318 370.201Z" fill="#2E5F7A"/>
<path opacity="0.1" d="M452.844 362.761C452.844 362.761 459.341 363.187 456.863 364.47C454.385 365.753 452.844 362.761 452.844 362.761Z" fill="#2E5F7A"/>
<path opacity="0.1" d="M444.721 364.729C444.807 365.155 463.612 371.231 459.938 373.982C456.265 376.733 444.721 364.729 444.721 364.729Z" fill="#2E5F7A"/>
<path opacity="0.1" d="M504.555 417.087C501.739 416.655 486.01 409.383 492.161 414.62C498.312 419.857 504.555 417.087 504.555 417.087Z" fill="#2E5F7A"/>
<path opacity="0.1" d="M496.777 422.818C496.777 422.818 495.409 428.122 490.195 427.438C484.98 426.753 496.777 422.818 496.777 422.818Z" fill="#2E5F7A"/>
<path opacity="0.1" d="M501.141 433.594C500.198 433.341 488.999 428.209 488.746 430.602C488.493 432.995 499.427 437.19 500.284 435.907C500.775 435.229 501.072 434.429 501.141 433.594V433.594Z" fill="#2E5F7A"/>
<path opacity="0.1" d="M464.894 427.438C463.525 427.351 450.718 423.243 448.142 426.92L464.894 427.438Z" fill="#2E5F7A"/>
<path opacity="0.1" d="M453.27 429.831C453.27 429.831 451.045 427.863 448.826 428.887C446.607 429.911 453.27 429.831 453.27 429.831Z" fill="#2E5F7A"/>
<path opacity="0.1" d="M481.652 451.051C481.508 451.777 481.157 452.447 480.641 452.978C480.124 453.509 479.465 453.879 478.743 454.042L481.652 451.051Z" fill="#2E5F7A"/>
<path d="M416.425 459.088C417.281 462.598 429.251 462.937 434.977 462C440.702 461.062 452.585 457.632 452.585 457.632C452.585 457.632 465.066 456.436 468.74 454.9C472.413 453.364 469.51 449.422 469.51 449.422C469.51 449.422 469.51 449.286 469.51 449.052C469.596 447.621 469.855 442.433 468.974 441.033C467.951 439.405 468.549 434.1 468.549 434.1C468.549 434.1 450.854 437.523 450.508 435.901C450.163 434.279 447.427 431.965 446.151 431.453C444.875 430.941 443.926 435.728 443.926 435.728C443.926 435.728 435.913 442.575 435.377 445.055C434.841 447.535 429.214 448.818 429.214 448.818C429.214 448.818 420.665 451.211 418.44 452.408C417.795 452.712 417.238 453.177 416.826 453.76C416.413 454.343 416.158 455.022 416.086 455.732C415.992 456.862 416.107 458 416.425 459.088V459.088Z" fill="#58514B"/>
<path opacity="0.1" d="M416.425 459.088C417.281 462.598 429.251 462.937 434.977 462C440.702 461.062 452.585 457.632 452.585 457.632C452.585 457.632 465.066 456.436 468.74 454.9C472.413 453.364 469.51 449.422 469.51 449.422C469.51 449.422 469.51 449.286 469.51 449.052L451.636 453.018C451.636 453.018 442.829 456.781 437.189 456.781C432.259 456.781 421.226 458.798 416.11 455.739C416.01 456.865 416.116 458 416.425 459.088V459.088Z" fill="#2E5F7A"/>
<path opacity="0.1" d="M440.616 445.573C440.616 445.573 441.473 451.217 444.893 453.099L440.616 445.573Z" fill="#2E5F7A"/>
<path opacity="0.1" d="M463.057 109.564C463.383 109.737 463.723 109.879 464.074 109.99C465.677 110.422 467.242 109.336 468.666 108.472C470.09 107.609 472.056 106.967 473.288 108.09C474.897 109.552 473.732 112.673 475.39 114.086C476.438 114.98 478.102 114.672 479.267 115.406C480.432 116.14 480.783 117.75 481.079 119.138C481.375 120.526 481.966 122.111 483.322 122.518C484.678 122.925 485.942 122.031 487.279 122.08C487.557 122.08 487.896 122.123 488.068 121.926C488.19 121.745 488.237 121.524 488.198 121.309C488.031 119.651 488.179 117.977 488.635 116.374C489.184 114.795 490.484 113.37 492.111 113.117C494.509 112.747 496.524 114.851 497.936 116.818C499.42 118.902 500.77 121.078 501.979 123.332C502.056 123.478 502.124 123.629 502.182 123.783C503.34 121.165 503.948 118.337 503.967 115.474C503.987 112.611 503.417 109.775 502.295 107.142C501.173 104.509 499.521 102.135 497.443 100.168C495.365 98.2007 492.905 96.6823 490.216 95.7071C487.526 94.7319 484.665 94.3208 481.81 94.4992C478.956 94.6777 476.168 95.442 473.621 96.7445C471.074 98.047 468.821 99.86 467.004 102.071C465.187 104.281 463.843 106.843 463.057 109.595V109.564Z" fill="#2E5F7A"/>
<path d="M497.936 116.473C496.524 114.487 494.509 112.389 492.105 112.772C490.46 113.025 489.19 114.45 488.635 116.023C488.178 117.625 488.032 119.3 488.204 120.957C488.238 121.173 488.19 121.393 488.068 121.574C487.877 121.778 487.557 121.747 487.279 121.735C485.942 121.685 484.611 122.555 483.322 122.173C482.034 121.79 481.375 120.18 481.079 118.792C480.783 117.404 480.463 115.819 479.267 115.06C478.071 114.302 476.438 114.635 475.39 113.734C473.732 112.328 474.903 109.2 473.288 107.738C472.056 106.622 470.09 107.263 468.666 108.127C467.242 108.991 465.677 110.07 464.068 109.638C463.526 109.49 463.039 109.182 462.509 108.978C459.975 108.01 456.69 109.651 454.607 107.911C453.851 107.154 453.307 106.212 453.029 105.179C452.457 103.781 452.07 102.315 451.877 100.817C451.693 99.3036 452.109 97.7778 453.035 96.5673C454.391 94.9697 456.684 94.5688 458.416 93.3906C459.889 92.3789 460.881 90.843 461.855 89.3317C462.829 87.8204 463.772 86.2475 465.196 85.1803C466.62 84.1132 468.616 83.5827 470.207 84.3908C470.708 84.7409 471.264 85.0056 471.852 85.1742C472.493 85.1824 473.124 85.0092 473.67 84.6745C479.6 81.8802 486.503 82.3737 493.005 83.2064C495.606 83.5395 498.244 83.9282 500.617 85.057C502.99 86.1858 505.085 88.1412 505.751 90.6826C506.281 92.6935 505.874 94.8833 506.515 96.8511C506.947 98.1958 507.834 99.3185 508.364 100.669C509.751 104.278 508.093 108.238 507.391 112.038C506.626 116.189 507.008 120.674 505.246 124.609C504.9 125.38 504.512 126.731 503.643 126.225C503.027 125.849 502.373 123.659 502.004 122.975C500.788 120.723 499.429 118.551 497.936 116.473Z" fill="#78482E"/>
<path opacity="0.1" d="M535.502 183.333L538.583 192.117C538.583 192.117 531.286 219.258 527.865 224.964C524.445 230.67 519.434 237.967 519.434 237.967C519.434 237.967 511.002 242.193 501.196 240.249C491.39 238.306 462.774 233.18 462.774 233.18C462.774 233.18 460.376 233.637 459.125 231.811C457.874 229.985 451.359 229.06 451.359 229.06C451.359 229.06 443.84 218.111 453.072 213.546C453.072 213.546 454.213 216.057 459.113 214.348C464.012 212.639 465.492 215.711 465.492 215.711C465.492 215.711 473.504 217.309 477.917 216.741C482.33 216.174 493.418 215.94 494.558 215.027C494.847 214.773 495.225 214.643 495.608 214.665C495.992 214.687 496.352 214.859 496.611 215.144C496.611 215.144 499.341 214.12 500.253 213.09C501.165 212.06 502.423 214.231 502.423 214.231C502.423 214.231 504.019 213.318 503.563 212.177C503.107 211.036 505.042 206.705 505.042 206.705C505.042 206.705 505.954 203.849 505.387 201.567C504.82 199.285 508.235 191.081 508.235 191.081C508.279 189.696 508.126 188.313 507.779 186.972C507.206 184.924 512.093 180.804 512.093 180.804C512.093 180.804 516.876 157.53 527.021 165.173C537.166 172.816 535.502 183.333 535.502 183.333Z" fill="#2E5F7A"/>
<path d="M536.155 183.333L539.237 192.117C539.237 192.117 531.939 219.258 528.519 224.964C525.098 230.67 520.093 237.967 520.093 237.967C520.093 237.967 511.662 242.193 501.856 240.249C492.05 238.306 463.445 233.18 463.445 233.18C463.445 233.18 461.054 233.637 459.803 231.811C458.552 229.985 452.043 229.06 452.043 229.06C452.043 229.06 444.524 218.111 453.757 213.546C453.757 213.546 454.897 216.057 459.797 214.348C464.697 212.639 466.176 215.711 466.176 215.711C466.176 215.711 474.188 217.309 478.601 216.741C483.014 216.174 494.102 215.94 495.242 215.027C495.532 214.773 495.909 214.643 496.293 214.665C496.676 214.687 497.036 214.859 497.295 215.144C497.295 215.144 500.025 214.12 500.937 213.09C501.85 212.06 503.107 214.231 503.107 214.231C503.107 214.231 504.703 213.318 504.247 212.177C503.791 211.036 505.726 206.705 505.726 206.705C505.726 206.705 506.639 203.849 506.065 201.567C505.492 199.285 508.919 191.081 508.919 191.081C508.964 189.696 508.81 188.313 508.463 186.972C507.89 184.924 512.777 180.804 512.777 180.804C512.777 180.804 517.56 157.53 527.705 165.173C537.85 172.816 536.155 183.333 536.155 183.333Z" fill="#293F60"/>
<path opacity="0.1" d="M462.077 220.06C462.188 220.862 464.697 224.051 463.784 224.625C462.872 225.198 461.393 224.853 462.761 226.679C464.129 228.505 463.994 231.237 463.1 230.898C462.207 230.559 460.709 226.451 460.709 224.853C460.709 223.255 462.077 220.06 462.077 220.06Z" fill="#2E5F7A"/>
<path opacity="0.1" d="M495.927 218.234C495.927 218.234 496.611 226.222 502.219 228.505C507.828 230.787 495.927 218.234 495.927 218.234Z" fill="#2E5F7A"/>
<path opacity="0.1" d="M507.551 215.489C507.89 215.606 515.526 219.715 512.112 222.108C508.697 224.501 507.551 215.489 507.551 215.489Z" fill="#2E5F7A"/>
<path opacity="0.1" d="M508.007 209.796C508.007 209.796 519.175 212.078 515.403 214.015C511.631 215.952 508.007 209.796 508.007 209.796Z" fill="#2E5F7A"/>
<g opacity="0.1">
<path opacity="0.1" d="M488.66 114.067C489.215 112.494 490.509 111.069 492.13 110.816C494.534 110.446 496.549 112.55 497.961 114.518C499.444 116.601 500.795 118.777 502.004 121.031C502.374 121.716 503.002 123.9 503.643 124.276C504.512 124.788 504.876 123.437 505.246 122.666C507.008 118.743 506.626 114.246 507.391 110.095C507.84 107.671 508.673 105.16 508.857 102.754C509.122 105.74 507.951 108.88 507.391 111.914C506.626 116.066 507.008 120.55 505.246 124.492C504.9 125.263 504.512 126.614 503.643 126.102C503.027 125.726 502.374 123.542 502.004 122.857C500.795 120.603 499.444 118.427 497.961 116.343C496.549 114.363 494.534 112.26 492.13 112.642C490.484 112.895 489.215 114.32 488.66 115.893C488.385 116.722 488.231 117.586 488.204 118.459C488.082 116.98 488.236 115.49 488.66 114.067V114.067Z" fill="#2E5F7A"/>
<path opacity="0.1" d="M453.029 103.223C453.306 104.259 453.85 105.204 454.607 105.962C456.69 107.701 459.975 106.061 462.509 107.029C463.039 107.226 463.525 107.541 464.068 107.689C465.677 108.115 467.248 107.035 468.666 106.172C470.083 105.308 472.062 104.673 473.288 105.789C474.903 107.251 473.732 110.372 475.39 111.785C476.438 112.679 478.102 112.402 479.267 113.111C480.432 113.821 480.783 115.449 481.079 116.812C481.375 118.175 481.96 119.785 483.322 120.193C484.685 120.6 485.942 119.711 487.279 119.761C487.557 119.761 487.896 119.804 488.068 119.6C488.109 119.548 488.14 119.49 488.161 119.428C488.161 119.89 488.161 120.347 488.204 120.803C488.237 121.019 488.189 121.239 488.068 121.42C487.877 121.617 487.557 121.587 487.279 121.574C485.942 121.531 484.611 122.395 483.322 122.012C482.034 121.63 481.375 120.026 481.079 118.632C480.783 117.238 480.463 115.659 479.267 114.931C478.071 114.203 476.438 114.499 475.39 113.605C473.732 112.192 474.903 109.065 473.288 107.609C472.056 106.486 470.09 107.128 468.666 107.991C467.242 108.855 465.677 109.934 464.068 109.509C463.525 109.361 463.039 109.046 462.509 108.849C459.975 107.88 456.69 109.521 454.607 107.782C453.851 107.022 453.307 106.078 453.029 105.043C452.458 103.647 452.071 102.183 451.877 100.688C451.833 100.178 451.846 99.6652 451.914 99.1581C452.128 100.551 452.503 101.915 453.029 103.223V103.223Z" fill="#2E5F7A"/>
</g>
<defs>
<linearGradient id="paint0_linear" x1="439.667" y1="166.018" x2="439.667" y2="146.322" gradientUnits="userSpaceOnUse">
<stop stop-color="#808080" stop-opacity="0.25"/>
<stop offset="0.54" stop-color="#808080" stop-opacity="0.12"/>
<stop offset="1" stop-color="#808080" stop-opacity="0.1"/>
</linearGradient>
<linearGradient id="paint1_linear" x1="183656" y1="316588" x2="183656" y2="67479.4" gradientUnits="userSpaceOnUse">
<stop stop-color="#808080" stop-opacity="0.25"/>
<stop offset="0.54" stop-color="#808080" stop-opacity="0.12"/>
<stop offset="1" stop-color="#808080" stop-opacity="0.1"/>
</linearGradient>
</defs>
</svg>
