<svg width="398" height="1277" viewBox="0 0 398 1277" fill="none" xmlns="http://www.w3.org/2000/svg">
<path fill-rule="evenodd" clip-rule="evenodd" d="M34.8049 1276.92L47.7877 1223.31C61.3606 1171.1 87.9163 1063.87 80.2446 958.045C71.9829 850.812 29.4937 744.989 23.5925 637.756C18.2813 531.934 50.7383 426.111 69.6223 318.878C87.9163 213.056 93.2274 105.822 96.178 53.6166L98.5385 -1.85038e-05L392.105 27.2854L392.105 252.657C392.105 304.863 392.105 340.556 392.105 446.378C392.105 553.611 392.105 617.768 392.105 723.591C392.105 830.824 392.105 948.685 392.105 1055.92C392.105 1161.74 146.929 1171.1 146.929 1223.31L146.929 1276.92L34.8049 1276.92Z" fill="url(#paint0_linear)" style="mix-blend-mode:overlay"/>
<path fill-rule="evenodd" clip-rule="evenodd" d="M65.6172 248.532L55.011 289.604C44.4048 330.677 23.1925 412.822 19.3352 497.551C17.6287 579.32 31.0935 660.796 55.3949 742.063C77.529 823.372 106.165 904.555 110.977 989.117C115.773 1070.76 92.3929 1152.95 81.7868 1194.02L71.1806 1235.09L224.229 1235.09L392.105 1235.09C391.875 1194.23 392.566 1091.81 392.105 1010.08C391.628 925.434 392.566 880.078 392.105 798.351C391.644 716.624 392.566 646.521 392.105 564.794C391.628 480.148 392.336 374.283 392.105 333.42L392.105 257.023L65.6172 248.532Z" fill="url(#paint1_linear)" style="mix-blend-mode:overlay"/>
<path fill-rule="evenodd" clip-rule="evenodd" d="M23.5293 1243.09L31.3723 1201.94C39.2154 1160.78 54.9016 1078.47 58.8231 996.164C62.7447 913.856 54.9016 831.547 39.2154 749.238C23.5292 666.929 -1.55618e-05 584.62 -1.7507e-05 502.312C-1.94522e-05 420.003 23.5292 337.694 35.2939 296.54L47.0585 255.385L188.234 255.385L188.234 296.54C188.234 337.694 188.234 420.003 188.234 502.312C188.234 584.62 188.234 666.929 188.234 749.238C188.234 831.547 188.234 913.856 188.234 996.164C188.234 1078.47 188.234 1160.78 188.234 1201.94L188.234 1243.09L23.5293 1243.09Z" fill="url(#paint2_linear)" style="mix-blend-mode:overlay"/>
<path fill-rule="evenodd" clip-rule="evenodd" d="M23.5293 1243.09L31.3723 1201.94C39.2154 1160.78 54.9016 1078.47 58.8231 996.164C62.7447 913.855 54.9016 831.547 39.2154 749.238C23.5292 666.929 -1.55618e-05 584.62 -1.7507e-05 502.312C-1.94522e-05 420.003 23.5292 337.694 35.2939 296.54L47.0585 255.385L393.58 255.385L393.58 383.078C393.58 424.232 393.58 504.858 393.58 587.167C393.58 669.476 393.58 768.428 393.58 850.737C393.58 933.046 393.58 1004.17 393.58 1086.48C393.58 1168.79 393.58 1201.94 393.58 1243.09L188.234 1243.09L23.5293 1243.09Z" fill="url(#paint3_linear)" style="mix-blend-mode:overlay"/>
<defs>
<linearGradient id="paint0_linear" x1="23.013" y1="638.462" x2="143.388" y2="638.462" gradientUnits="userSpaceOnUse">
<stop stop-opacity="0.46"/>
<stop offset="1" stop-opacity="0"/>
</linearGradient>
<linearGradient id="paint1_linear" x1="411.578" y1="754.695" x2="53.73" y2="760.921" gradientUnits="userSpaceOnUse">
<stop stop-opacity="0.38"/>
<stop offset="0.0001" stop-opacity="0"/>
<stop offset="1" stop-opacity="0.174167"/>
</linearGradient>
<linearGradient id="paint2_linear" x1="-1.16713e-05" y1="749.238" x2="134.538" y2="749.079" gradientUnits="userSpaceOnUse">
<stop stop-color="#BCC6F6" stop-opacity="0.48"/>
<stop offset="1" stop-color="#F2F6FF" stop-opacity="0"/>
</linearGradient>
<linearGradient id="paint3_linear" x1="-1.7207e-05" y1="749.238" x2="79.956" y2="749.079" gradientUnits="userSpaceOnUse">
<stop stop-color="white" stop-opacity="0.48"/>
<stop offset="1" stop-color="#F2F6FF" stop-opacity="0"/>
<stop offset="1" stop-color="#F2F6FF" stop-opacity="0"/>
</linearGradient>
</defs>
</svg>
